<svg version="1" xmlns="http://www.w3.org/2000/svg" width="400" height="400" viewBox="0 0 300.000000 300.000000"><path d="M137 7.1c-19.6 1.4-25.4 2.2-33.5 4.2-5.6 1.5-6.2 2.5-6.4 12.9-.1 7.6 1 10.6 4.1 10.2 1.2-.1 2.3-.3 2.3-.4 0-.1 1.2-.3 2.6-.4 1.4-.2 3.2-.6 3.9-1.1.9-.5 1.1-.4.6.3-.4.7-.1 1.2.9 1.2s1.4-.5 1-1.3c-.4-.6 0-.4.8.6 1.3 1.6 1.5 1.6 2.1.1.9-2.3.7-3.1-.4-1.4-.6.9-1 1-1 .3 0-.6.4-1.4.9-1.8 1.2-.7 3.3 2.9 2.3 4-.4.4.3.2 1.6-.4 1.2-.6 2.2-1.7 2.1-2.4 0-.9-.2-.9-.6 0-.6 1.7-2 1.6-2-.1 0-.9.8-1.3 2.4-1 1.3.3 2.9.1 3.6-.3.7-.4 1.9-.8 2.7-.8.8 0 2.1-.4 2.8-.9 1.2-.7 1.2-.4.2 1.4-.6 1.2-.9 2.4-.6 2.8.3.3.6 0 .6-.7s.5-.9 1.2-.5c.6.4.8.3.4-.4-.3-.6-.2-1.3.4-1.7.5-.3 1-.2 1 .4 0 .5.8.8 1.8.7.9-.2 2.1.2 2.5.8.5.6.6.2.2-1-.5-2-.2-2.2 3-1.8 2.4.2 3.3-.1 2.9-.8-.4-.7-.3-.8.5-.4.6.4.8 1.3.4 1.9-.4.8-.1.7.9-.1 1.4-1.1 1.6-1 1.3 1-.8 5.5-4.6 20.1-5.4 20.8-.3.3-.6.9-.6 1.5-.1 2.9-1.8 9.6-2.5 10-.5.3-.7 1.2-.3 2 .3.8 0 1.5-.7 1.5-.6 0-.9.4-.6.9.7 1-3.7 18.4-4.4 17.7-.3-.2-.5.8-.6 2.2-.1 3.8-10.6 43.6-11.6 44-.5.2-.6.8-.2 1.3.3.5-.4 4.4-1.6 8.7-2.6 9.2-2.6 9.3-4.6 18.7-.3 1.6-.9 3.4-1.2 4-.3.5-.7 2.3-.9 4-.2 1.6-.8 3.2-1.3 3.3-.6.2-.8.7-.5 1.1.2.4-.1 2.5-.7 4.7-.6 2.1-1.1 4.2-1 4.6.1.5-.2.8-.6.8-.4 0-.8.8-.9 1.7-.1 2.5-5.3 19.7-6.1 20.3-.4.3-.9 1.4-1 2.5-1.8 10.7-20.5 44.3-24.7 44.5-.6 0-1.6.9-2.3 2.1-.8 1.2-1.9 1.8-2.8 1.5-.8-.3-1.3-.2-1 .3 1 1.5-6.3 3.8-12.6 4-4.5.2-5.8-.1-5.2-1 .5-.9.2-1-.9-.6-2.5.9-8-4.4-7-6.9.6-1.7.5-1.8-1.3-.4-1 .8-1.6 1.1-1.2.6.4-.5 0-2.2-.8-3.8-.9-1.7-1.1-2.7-.6-2.4.6.4 1.4.2 1.7-.4.4-.6.3-1-.2-.9-2 .3-3.4-.2-2.8-1.1.4-.6 1-.8 1.5-.5.5.3 1.1.1 1.5-.4.3-.6-.4-.8-1.6-.6-1.6.3-1.9.1-1.4-1.3 1.1-2.5 1.4-13.2.4-13.2-.4 0-.6.9-.4 1.9.3 1.4-.1 1.8-1.2 1.4-.8-.3-1.1-.9-.6-1.2.5-.3.9-2.3.8-4.3-.1-2 .3-3.6.8-3.5.5.1 1.2-.4 1.5-1.2.3-.9 0-1.1-.8-.6-1 .6-1.2.4-.7-.9.4-1 .7-2.1.7-2.4 0-.4.4-.1.9.6.7 1.1.9 1 1.4-.3.4-.9.3-1.4-.1-1.1-.4.2-1.4.1-2.2-.5-1.2-.7-1.1-.9.6-.9 1.2 0 2.8-.8 3.5-1.8 1.2-1.5 1.2-1.6-.1-.6-1.1.9-1.8.9-2.7-.1-1-1-.9-1.4.4-1.9s1.3-.9.2-2.3c-1.2-1.5-1.2-1.6.1-.8 2.9 1.8 4.5 1.4 2-.5-2.3-1.8-.9-2.3 1.7-.7.7.5 1.6-.1 2.3-1.5 1-2 1-2.1-.3-.6-1 1.3-1.7 1.4-2.5.6-1.6-1.6.4-4.9 2.5-4.1 1.2.5 1.4.3.7-.8-1.3-2.1-1.4-3.9-.1-3.6.7.1 1.1-.4.9-1.1-.2-1 .2-1 2-.1l2.3 1.2-2-2.3-2-2.3L50 191c2.2 1.2 2.4 1.2 1.2-.2-1.8-2.2 1.1-5.2 4.1-4.2 1.7.5 1.8.4.6-.9-.8-.8-2.1-1.2-2.9-1-.8.2-.6-.1.5-.8 1.1-.7 2.6-2 3.3-2.8 1.1-1.3 1.1-1.2.2.7-.7 1.3-.9 2.6-.6 3 .3.3.6 0 .6-.7s.4-1 .8-.7c.5.3.9-.1 1-.9.1-.8.3-2.2.4-3 .1-.9.6-1.4 1.2-1.2.6.2 1 1.3.8 2.3-.2 1.4 0 1.5.6.6.5-.7.8-2.6.7-4.2-.1-1.6.1-2.8.4-2.8 1.3.2 4.1-1.5 3.6-2.2-.3-.5.3-.7 1.2-.5 1 .2 1.8.4 1.8.5 0 .1.8.3 1.8.5 1.5.3 1.6.1.5-1.2-1-1.3-1-1.7 0-2 .6-.3.9-1 .5-1.6-.5-.9-.3-.9.8 0 .9.8 2 .9 2.9.3 1.3-.8 1.3-1 .1-1-.8 0-1.2-.3-.8-.6.3-.3 1.1-.3 1.8.2.9.5.7 1.1-.6 2.1-1.1.7-1.4 1.3-.8 1.3.7 0 1.5-.5 1.8-1 .5-.8 1.2-.7 2.3.2 1.5 1.2 1.6 1.1.3-.5-1-1.2-1.1-2.1-.4-2.8.8-.8 1.3-.7 1.8.2.6.8.4 1-.5.4-.9-.5-1.1-.4-.6.3.5.9 1.3.9 2.9 0 1.2-.6 2.3-1.1 2.5-1 .1.1.2-.1.1-.5 0-.4.8-1.1 1.8-1.5 1.6-.7 1.6-.8-.2-.5-1.1.2-1.9.8-1.8 1.3.1.6-.4 1.1-1.2 1.1-1.1 0-1.1-.4.1-2.2.8-1.2 1.1-2.5.7-2.9-.4-.4 0-.4 1 0 1.3.5 1.6.2 1.1-1-.3-.9-1.1-1.3-1.8-.9-.6.4-.5-.1.3-1 .8-1 .9-1.7.3-1.7-.6 0-1-.9-.9-1.9 0-1.1.5-1.7.9-1.5.4.3.8.1.8-.3 0-.5-.9-1.4-2.1-2.1-1.7-1.1-1.9-1.6-.7-2.9.7-.9.8-1.4.2-1-.7.4-1.7 0-2.4-.8s-.9-1.5-.6-1.5c1.5 0-4.6-4.8-7.6-6.1-2.2-.9-4-1-6.7-.2-2 .5-4.3 1.2-5.1 1.4-.8.2-1.7.6-2 1-.3.3-2.3 1.6-4.4 2.9-13.1 8-29.4 30.8-36.9 51.7-5.3 14.6-7.3 36.7-4.4 46.5.8 2.6 1.2 4.9.9 5.2-.3.4 0 .6.7.6.8 0 1.1.8.8 2-.3 1-.2 1.8.2 1.7.3-.1.7.2.8.6.1.5.9 1.4 1.9 2.1 1.1.8 1.4 1.8.9 2.7-.5.8-.5 1.1 0 .7 1.1-1.1 3.6 1.2 2.8 2.5-.3.5-.2.7.4.4 1.3-.8 5.6 3.7 4.6 4.8-.5.4 0 .5 1 .2 1.1-.4 1.7-.1 1.7.8 0 .7.5 1.7 1.2 2.1.7.4.8.3.4-.4-.5-.8-.2-1 .9-.6 1 .4 1.2 1 .6 1.8-.7.8-.4 1.2.9 1.2 1 0 1.6-.4 1.4-.8-.3-.4.2-.5 1-.2.9.3 1.6 1.4 1.6 2.3 0 1.4.2 1.4 1 .1.8-1.2 1-1.2 1.6.4.5 1.4.9 1.5 1.5.4.7-1.1 1-1 2.1.1 1.1 1.2 1 1.2-.2.6-1.3-.8-1.3-.6-.2.7 1.4 1.7 4.1 1.4 5.4-.6.5-.6.8-.2.8 1.1 0 1.2.4 2.4.9 2.8.6.3.8-.3.6-1.3-.3-1.5.3-1.8 3.8-1.7 2.3.1 4.9-.3 5.7-.9 1-.8.9-.2-.4 1.8-1.1 1.7-1.3 2.5-.5 2 1.4-.9 1.9-1 3.9-1.3.6 0 1-.6 1-1.2 0-.8-.6-.7-1.7.2-1.6 1.3-1.7 1.2-.5-.3.7-.9 2.2-1.5 3.2-1.3 1.1.2 2.2-.1 2.5-.6.8-1.3 2.5-.2 2.1 1.4-.1.7-.1.9.1.5s1.2-.4 2.1 0c1.5.5 1.5.4 0-1.2-2.2-2.2-2.2-2.5-.1-2.2 1 .2 3.1-.5 4.7-1.5 1.6-.9 3.6-1.5 4.4-1.1 1 .3 1.3.1.8-.6-.5-.8-.1-1 1.1-.5 1.6.6 1.7.5.3-1.2s-1.4-1.8.6-.7c1.2.6 2.4.8 2.8.5.3-.3.6 0 .6.7s.2 1.1.5.8c1-.9-.7-3.8-1.8-3.1-.5.3-.7.2-.4-.4.3-.5 2-.8 3.7-.7 2.7.2 2.9 0 1.8-1.4-1.1-1.3-1-1.4.9-.4 3.3 1.8 3.8 1.4 1.2-.7l-2.4-1.9 2.7.5c2 .4 2.8 0 3.3-1.6.3-1.1 1.5-2.3 2.6-2.6 1-.4 1.7-1.1 1.3-1.6-.3-.5-1-.7-1.5-.4-1.5 1-1-.2.8-1.6 1.1-1 1.4-1 .9-.2-.4.7-.3 1.3.2 1.3 1.5 0 2.2-2.8.9-3.4-.8-.3-.8-.5-.1-.5.6-.1 1.7.6 2.4 1.4 1.4 1.7 3 2 3 .5 0-.6-.6-.9-1.2-.8-.7.2-1.2-.3-1-1 .1-.6-.3-1.2-1-1.2-.6 0-.8-.3-.5-.6.4-.4 1.3-.1 2.2.6.9.7 1.8 1 2.2.6.3-.3.1-.6-.6-.6s-.9-.4-.6-1c.3-.5.1-1-.6-1s-.9-.3-.6-.6c.4-.4 1.3-.1 2.1.5 1.2 1 1.4.9.9-.8-.3-1.3-.1-2.1.6-2.1s.9.4.6 1c-1.3 2.1.4.9 1.8-1.4 1.4-2 1.4-2.5.2-3-.9-.3-1.2 0-.8 1 .3.7.1 1.4-.5 1.4s-.9-.8-.8-1.8c.2-1.2 1.1-1.6 3-1.5 2.4.2 2.5.1 1.1-1.3-.8-.9-1.5-2-1.5-2.5 0-.6.7-.3 1.6.5 2.1 2.2 2.7 2 1.4-.3-.7-1.4-.7-2.2 0-2.6.6-.4.8-1 .5-1.5-.3-.4.2-1.3 1-2s1.5-.9 1.5-.4.5.1 1.1-.9c.6-.9 1.5-1.4 2.1-1.1.7.4.8.2.4-.5-.6-.9-1.1-.9-2.2 0-.8.6-1.7.9-2.1.5-.3-.3-.1-.6.6-.6s1-.4.7-.9c-.3-.5.1-1.4.9-2.1.8-.7 1.2-1.6.9-2.1-.3-.5.3-1.2 1.3-1.6 2-.7 3.3-2.2 3.3-3.8-.1-.6-.7-.1-1.5.9-.8 1.1-1.5 1.5-1.5.9 0-1.5 2.7-3.6 3.9-2.9 1.1.7 2-1.4 1.4-3.2-.3-.6-1-.9-1.5-.6-.7.4-.8.2-.4-.5.6-.9 1.1-.9 2.4.1 1.2 1 1.4 1 .8 0-.4-.7-.1-1.5 1-1.9 1.4-.5 1.3-.8-.7-1.9-1.3-.7-1.9-1.3-1.2-1.4.7 0 1-.7.7-1.8-.5-1.4-.4-1.4.4-.2.6.8.8 1.9.4 2.5-.3.5.2.4 1.1-.4.9-.7 1.4-1.8 1-2.5-.4-.6-.9-2-1-3.1-.2-1.8-.1-1.7 1 .3l1.3 2.3 1.2-2.8c1.1-2.6 1.1-2.7-.3-.9-1.5 2-2 1.1-.9-1.8.3-.9 1.1-1.3 1.8-.9.6.4.4-.1-.4-1.1-1.2-1.6-1.1-2 1-3.7 1.7-1.2 2.1-2.1 1.4-2.6-1.3-.9-1.5-4.5-.2-3.7.5.3.6 1 .3 1.5-.4.5-.4.9-.1.9.3 0 1-1 1.7-2.1.6-1.2.7-1.9.1-1.5-.5.3-1.2-.1-1.5-.9-.4-.9-.1-1.2.9-.8.7.3 1.4 0 1.4-.6s-.4-1.1-1-1.1c-.5 0-1-.5-1-1.1 0-.5.5-.7 1-.4.6.3 1.1 0 1.1-.7.1-.7.2-1.8.4-2.3.1-.6.3-1.6.3-2.3.1-.7.6-1.1 1-.8.5.3.9-.1.9-.9s-.4-1.2-.8-.9c-.5.3-.7-.8-.6-2.4.1-1.6.7-2.9 1.4-2.9.8 0 .9.6.2 1.9-.7 1.4-.7 1.8.3 1.6.7-.2 1.2.3 1 1-.1.8.2 1.1.8.7.8-.5.7-1.1-.1-2.1-.6-.8-.9-1.7-.6-2 .3-.3.1-1.9-.3-3.6-.8-2.4-.6-2.9.5-2.4 2 .7 1.9-.4-.2-2-1.4-1-1.5-1.2-.3-1.1.8.2 2 .6 2.6.9.6.4 1.1.1 1.1-.7 0-.8-.3-1.4-.6-1.3-1.7.2-3.1-.3-3.1-1.1 0-.5.7-.8 1.6-.7.9 0 1.9-.5 2.1-1.2.3-.6 0-1.2-.7-1.2-.6 0-.8.4-.5 1 1 1.6-.1 1.2-1.5-.6-1.1-1.2-1.1-1.5 0-1.2.7.2 1.5-.3 1.8-1.1.3-1 0-1.1-.9-.5-1.1.6-1.2.5-.3-.7.6-.8 1-2.2.9-3.2-.2-.9.1-1.7.6-1.7.6 0 .7-.5.3-1.2-.4-.7-.3-.8.5-.4.6.4.9 1.2.6 1.7-.4.5-.8 1.8-1 2.8-.3 1.5 0 1.8 1.3 1.4 1-.4 1.2-.8.4-1.1-.8-.2-.9-.9-.2-2.1.5-1 .7-2 .5-2.2-.2-.3-.6-1.7-.9-3.3-.6-3.3 1.3-6.9 2.9-5.6.8.7 1.2.5 1.2-.5 0-.8-.4-1.2-.8-.9-.4.2-1 0-1.4-.6-.3-.5-.1-1 .4-1 .6 0 1.1-.8 1-1.8 0-1-.3-1.2-.6-.5-.2.7-.9 1.3-1.5 1.3s-.5-.6.2-1.5c1-1.2 1.6-1.3 2.7-.3 1.2 1 1.2.8.2-1.5-.7-1.5-1.7-2.3-2.3-2-.6.4-.5-.1.3-1 .8-1 1.6-1.5 1.9-1.2.3.3 1.2-.4 1.9-1.5 1.2-1.7 1.2-2.4.2-3.6-.7-.9-1.3-2.4-1.4-3.5-.1-1.4.1-1.6 1.2-.8.7.6 1.4.8 1.4.3.5-3.5.5-5.3 0-5-.3.2-.7-.7-.7-2-.2-2.3-.1-2.4 1.2-.7 1.3 1.6 1.3 1.5.4-1.1s-.9-2.8.5-1.6c1.3 1.1 1.5 1 1.1-.1-1.3-4.2-1.5-6.9-.6-6.9.6 0 .9.4.6.8-.2.4 0 1.4.6 2.2.8 1.3.9 1.2.5-.2-.3-.9.1-2.2 1-2.9 1.3-1.2 1.2-1.5-.8-3.3-1.6-1.3-1.8-1.7-.6-1.3 1.3.5 1.7.1 1.7-1.6 0-1.8-.2-1.9-1-.7-.5.8-1 1-1 .5 0-.6.5-1.7 1-2.5.6-1 1-1.1 1-.3 0 .7.4 1.3 1 1.3s.6-.9 0-2.4c-.5-1.5-.5-2.7.2-3.4.8-.8.8-1.5 0-2.5-.9-1-.9-1.4.1-1.4.8 0 1.3 1.9 1.3 5.8.1 4-.2 5.6-1 5.2-.8-.5-.8-.3 0 .8 1.6 2 1.3 5.2-.5 6.7-.9.8-1 1.1-.3.7.8-.4 1.2.1 1.2 1.5s-.4 1.9-1.2 1.4c-1-.6-1-.4 0 .8 1 1.3 1.1 5.2.2 7.8-.1.3-.1 1.8 0 3.3.1 1.5-.4 3.5-1 4.3-1 1.1-1 1.4-.1 1.4.7 0 .9.4.6 1-.3.5-.8 4-1.1 7.7-.2 3.8-.7 7.9-1 9.3-.3 1.4-.8 5-1 8-.2 3-.8 11.6-1.4 19-1.4 17.8-1.1 51.1.7 60.3.7 3.9 1.1 7.7.9 8.4-.3.7-.1 1.3.4 1.3 1.2 0 1.4 3.6.3 4.3-.5.2-.2.2.5.1 1.1-.3 1.6 1.7 1.6 6.8 0 .9.3 1.5.8 1.2 1-.6 2.8 3.7 2 5-.3.5 0 .6.6.2.5-.3 2 .6 3.2 2.1 1.2 1.6 1.8 2.1 1.4 1.3-.7-1.2-.2-1.1 1.9.3 1.5.9 2.7 1.3 2.7.7 0-1 4-.7 5.9.5.6.3 1.5-.4 2.1-1.6 1.6-2.8 2.5-1.7 1 1.3-1.1 2.2-1 2.2.4.3.8-1.1 2.1-2.7 2.8-3.5.7-.8 1.2-1.9 1-2.4-.2-.5.3-.4 1 .2 1 .7 1.8.8 2.8 0 1.2-.8 1.2-.9-.2-.4-1 .3-1.8.1-1.8-.4 0-.6.9-1 2.1-1 1.1 0 1.7-.5 1.4-1-.4-.6-1.1-.7-1.7-.4-.7.4-.8.2-.4-.4.4-.6 1.4-.8 2.3-.5 1.3.5 1.5 0 1.1-2.6-.3-1.7 0-3.5.5-3.8.6-.4.7-.1.2.8-.8 1.2-.6 1.2.8 0 1.8-1.4 2.4-2.6.8-1.7-1.6 1-2.8-1.8-2.6-6 .2-4.8 1-6.4 3.2-6.4 1.3 0 1.1-.4-.6-1.9-1.3-1.2-1.7-2.1-1-2.3.6-.2 1.2-1.7 1.2-3.2 0-2.3.1-2.6.9-1.3.5 1.1.5 2.4-.2 3.6-1.5 2.8.4 3.4 2.6.8 1.6-1.8 1.6-1.9.2-.8-2 1.5-2.5.2-.6-1.7.9-.9.9-1.2-.1-1.2-.9 0-.8-.6.3-2.2 2-2.9 2-3.5-.1-4.1-1.6-.4-1.6-.5-.1-.6.9 0 2.1-1.5 2.7-3.2.6-1.7 1.5-2.8 2.1-2.4.5.3 1 .1 1-.4 0-.6-.4-1.1-.9-1.1s-1.1-1.1-1.3-2.5c-.4-2-.2-2.3 1.2-1.5 1.4.8 1.6.3 1.4-3.3-.1-2.3.4-5.3 1.2-6.7.7-1.4 1.3-2.1 1.4-1.7 0 .5-.5 1.8-1.1 2.9-.8 1.5-.8 2.3.2 3.2.8.6 1.1.7.7.2-.4-.5-.1-2.4.7-4.2.8-1.9 1-3.4.4-3.4-.5 0-.9-.5-.9-1 0-.7.6-.7 1.9 0 1.7.9 1.9.7 1.6-1-.2-1.1.3-2.4 1.2-2.8 1.3-.8 1.3-1-.1-1.5-1-.4-1.4-.3-1.1.2.3.5.1 1.2-.5 1.6-.6.4-.8 1.1-.5 1.6.3.5-.1.6-1.1.2-1.5-.5-1.5-.7 0-1.5.9-.5 1.4-1.3 1.1-1.8-.3-.5-.1-1.1.5-1.5.6-.4.7-1.1.4-1.7-.4-.6.1-.6 1.4.1 1.7.9 1.9.8 1.5-.9-.3-1.1-.9-1.7-1.4-1.4-1.4.8-1.1-.6.5-2.1.7-.8 1.7-1.1 2-.7.4.3.4-.1.1-1-.4-.9-.1-1.9.6-2.4.8-.5 1-.3.4.7-.8 1.2-.6 1.2.8.1.9-.8 2.2-1 2.8-.6.8.4.9.3.5-.5-.4-.6-1.5-1-2.4-.9-2.3.4-2.5-3.9-.2-5.5.9-.7 1.6-2.2 1.5-3.4-.1-1.8.1-2 1.7-1.2 1 .5 1.9.7 1.9.4.1-.3.2-.8.3-1.3.1-.4.5-1.4 1.1-2.2.8-1.3.7-1.3-.8-.1-.9.7-1.4 1.8-1 2.4.3.6.1.7-.6.3-.6-.4-.9-1.2-.6-1.7.4-.5.8-1.9 1-3.1.3-1.2.9-2.6 1.5-3.2.8-.8.9-.6.5.5-.3.9.2 2.1 1.2 2.9 1.2 1 1.4 1 .7.1-1.4-1.5-.6-5.4.9-4.4.6.3.7.1.3-.5-.4-.7-.1-1.2.6-1.2.8 0 .6-.5-.5-1.1-1-.6-1.4-1.5-1-2.2.4-.7.8-1.8 1-2.6.1-.8.6-1.7 1.1-2 .5-.3.8-1.4.7-2.3-.2-1 .2-1.6.8-1.5.7.1 1.1-.6 1.1-1.5-.1-.9.4-1.4 1.1-1.2.7.3 1.6 0 2-.5.3-.6 1.2-.8 1.8-.5.8.5.8.3 0-.7-1.4-1.4-1.8-4.3-.5-3.5.4.2 1.4.1 2.1-.3 1-.6.9-1-.4-1.4-.9-.4-1.3-.3-1 .3.4.6-.1.7-1.1.3-1.5-.5-1.5-.7 0-1.5.9-.5 1.4-1.3 1.1-1.8-.3-.4.2-1.1 1.1-1.4 1-.4 1.3-.2.8.7-.6.9-.5.9.8 0 .8-.7 1.9-.9 2.3-.5.5.4.5.1.1-.6s-1.1-1-1.6-.7c-.4.3-1.3-.2-2-1-1.1-1.3-1-1.4.1-1 .8.3 2.3-.2 3.4-1.1 1.1-.8 1.5-1.3.8-1-2.3 1.2-2.4-1.5-.2-5.4 1.6-2.8 2.6-3.7 3.4-3 1.3 1.1 1.4-1.7.1-3.8-.4-.7-.5-1.6-.2-1.9.3-.4.6-.1.6.6s.5.9 1 .6c.7-.4.6-1.3-.1-2.7-.8-1.5-.8-1.9 0-1.4.6.4 1.1.2 1.1-.4 0-.6.8-1 1.7-.8 2.2.4 2.4-2.4.3-3.5-.9-.4-.5-.6 1.2-.4 1.5.2 2.5.1 2.3-.4-.3-.4.2-1.5 1.1-2.4 1.5-1.5 1.4-1.5-1-1.1-1.5.3-2.4.1-2.1-.5.4-.5 1.1-.6 1.7-.3.7.5.9.2.6-.8-.4-.8 0-1.5.8-1.5.7 0 1.1.5.7 1-.3.5.4.4 1.6-.2 1.7-1 2.1-.9 2.1.4 0 .9-.4 1.4-.9 1.1-.4-.3-.6.6-.3 1.9.2 1.5 0 2.5-.7 2.5s-.9.4-.6 1c.3.5-.2 3.8-1.1 7.2-1.9 7.3-2.2 8.8-2.3 10.6-.1.7-.4 1.1-.8.9-.5-.3-.8.7-.9 2.1 0 1.5-.3 3.6-.6 4.7-.2 1.1-1 4.6-1.8 7.7-.7 3.2-1.7 5.8-2.1 5.8-.5 0-.6.6-.3 1.3.2.7-.2 4-1.1 7.3-1.7 6.4-2.2 8.2-3.1 13.1-.3 1.8-1 3-1.5 2.7-.5-.3-.6.1-.4.8.3.8-1.3 8.8-3.5 17.8-2.2 9.1-4.2 17.8-4.5 19.4-.2 1.5-.8 3.8-1.1 5-.4 1.1-.8 2.8-.9 3.6-.8 6.3-2.9 13.9-3.8 13.3-.6-.3-.7-.1-.3.6.8 1.3-2.4 19.2-3.4 18.6-.3-.2-.5 1.3-.6 3.3 0 2.1-.7 7.8-1.6 12.9-.8 5-1.4 10.3-1.3 11.7 0 1.4-.3 2.6-.7 2.6-.4 0-.8.5-.8 1.1 0 .5.4.8.9.5.7-.5 2 4.4 2.4 9.6.1.9.6 1.4 1.1 1.1.5-.4.7.1.3 1.1-.4.9-.3 1.5.2 1.2 1.1-.7 2.3 2.2 1.4 3.6-.3.7-.1.8.5.4.7-.4 1.2-.2 1.2.3 0 .6.7 1.1 1.5 1.1 1 0 1.5.7 1.3 1.7-.2 1.4.3 1.7 2.1 1.5 1.6-.3 2.1 0 1.5.9-.5.9-.2 1.1.9.6.8-.3 2.1.1 2.7.8.7.8 1.7 1.2 2.3.8.7-.4.8 0 .3 1.3-.6 1.5-.5 1.7.5.6 1.5-1.4 3.3-1.6 2.4-.2-.3.5-.2 1 .4 1 .5 0 1.3-.5 1.6-1 .4-.7 1.1-.7 1.8-.2.7.5 3.9.8 7.2.7 8.4-.4 8.5-.4 8.5-1.5 0-.7-.7-.7-2.2 0-2.2 1.1-2.2 1-.4-.4 1.2-1 2.3-1.2 3.1-.6 1.2 1 4 .8 5.1-.3.4-.4 1.3-.2 2 .4.9.7 1.2.6 1-.5-.1-.9-.6-1.9-1.1-2.3-.4-.4-.5-.2-.1.4.5.9.2 1.1-.8.7-.9-.3-1.6-.2-1.6.4 0 1.1-2.6 1-3.5-.1-.3-.4-.2-.5.1-.2.4.2 2.1-.3 3.8-1.2 1.7-1 3.6-1.6 4.3-1.5.6.1 1.5-.3 1.9-.9.5-.8.2-1-.7-.5-.8.4-.6.1.4-.7 2.1-1.8 2.2-2.7.1-2.7-.9 0-1.2-.5-.8-1.3.6-.9.5-.9-.7 0-1.4 1.1-5.8.7-6.9-.6-.3-.3-1.4-1.1-2.5-1.7-1.1-.6-2.5-2.1-3.1-3.2-.6-1.2-1.4-1.9-1.9-1.4-.4.4-.3-.3.3-1.4.9-1.8.8-2.5-.6-3.5-1.5-1.3-1.6-1.2-.4.3 1 1.2 1 1.8.1 2.4-.7.4-.9.3-.5-.4.3-.6.2-1.3-.3-1.7-.6-.3-.7-1.3-.4-2.2.4-1 .2-1.4-.4-1-.7.5-.9-.1-.5-1.5.3-1.2.1-1.9-.5-1.5-.5.3-1 0-1-.8 0-1.8.9-1.9 2.6-.3.7.7.2-.4-1.2-2.4-1.6-2.5-2.3-4.8-2.2-7.2.2-2-.1-3.9-.6-4.2-.5-.3-.4-1.5.3-2.7 1.8-3.3 1.8-4.8.1-5.4-1.3-.5-1.2-.8.6-1.5 2.3-.8 2.4-3.5.2-3-.7.1-1-.2-.6-.8.3-.6 1.1-.8 1.6-.5.5.3.6-.1.3-.9-.3-.9-1.1-1.3-1.8-.9-.6.4-.6 0 .2-.9.7-.9 1.1-2.8.8-4.2-.3-1.4-.1-2.8.3-3 .4-.3.7-1.8.6-3.4-.1-2.1.3-2.9 1.4-2.8.9.1 1.5-.5 1.3-1.4-.2-.8.4-2 1.3-2.6 1.4-1.1 1.4-1.2 0-1.8-.9-.3-1.3-.2-1 .4.3.5-.1.7-.9.4-1.2-.5-1-1 .7-2.7 1.2-1.2 2.6-2.1 3-1.9.5.1.6-.2.2-.8-.3-.6-1.1-.8-1.6-.5-.5.4-.9.1-.9-.5s-.5-.8-1.1-.4c-.8.5-.8.1 0-1.3.6-1.1.8-2.3.5-2.6-.3-.3.3-.3 1.5 0 2.2.6 2.9-1.1.9-2.3-.7-.4-.8-.3-.4.4.5.8.1 1-1 .5-1.6-.6-1.5-.7.1-2 1-.7 1.6-1.6 1.2-1.9-.4-.4.1-1.3 1.1-2 1.5-1.2 1.4-1.2-.8-.8-1.4.3-2 .2-1.4-.3.6-.4 1-1.6.8-2.6-.1-.9.2-1.5.7-1.1.5.3.7 1 .4 1.5-.4.5-.1.9.4.9 1.4 0 1.4-.6.1-3-.8-1.6-.7-1.8.4-1.4 1 .4 1.3 0 1.1-1.3-.2-1-.4-2-.4-2.3-.1-.3-.6.2-1.2 1-.9 1.2-.9 1.1-.4-.5.4-1.1.8-2.5.8-3.2 0-1.5 2.5-2.5 4-1.7.7.3.3-.3-.9-1.3-1.8-1.5-1.9-2.1-.9-4.1.7-1.3 1.6-2.3 2-2.2.3.1 1-.2 1.3-.6.4-.4.3-.5-.3-.2-.5.3-1.7-.1-2.4-1-1.3-1.4-1.2-1.5.7-1 2.5.7 3-.7.7-1.6-1.3-.5-1.4-1-.4-2.8.7-1.3 1.1-2.4 1-2.6-.2-.2.1-.7.5-1 .4-.4.3 0-.1.8-.8 1.3-.6 1.3.7.2 1.6-1.3 1.8-3.5.5-4.8-.3-.4-.5.3-.2 1.4.3 1.5 0 1.9-1.2 1.5-1-.4-1.1-.8-.3-1.3.6-.4 1.1-1 1.1-1.4-.3-2 0-2.6.9-2.1.6.3 1 0 1-.7s.3-2.4.7-3.7c.4-1.7.3-2.2-.6-1.7-.6.4-.9 1.1-.7 1.5.3.4 0 1.3-.5 2.1-.7 1.2-.8 1.1-.6-.5.1-1.1.6-2.5.9-3.1.4-.6.6-2.1.3-3.3-.5-2.5-.2-2.6 1.6-.4 1.2 1.4 1.2 1.6 0 .8-1-.5-1.2-.4-.7.4.4.6 1.2.9 1.7.5.5-.3.6-1 .3-1.6-.4-.6-.1-1.4.6-1.8.8-.5.7-.9-.5-1.3-1-.5-1.4-.3-.9.5.4.7.3.8-.5.4-1.5-.9-.4-2.8 1.2-2 .7.3.4-.1-.5-.9-1.7-1.3-1.7-1.5.4-3.3 1.2-1 1.8-1.3 1.3-.5-.5 1-.4 1.2.4.7.6-.4.9-1.1.6-1.6-.3-.4 0-1 .7-1.2.7-.3.5-.7-.6-1.1-1.1-.5-1.5-.3-1 .5.5.7.3.8-.5.4-1.3-.9-.6-2.1 1.1-2.1.6 0 1.3-1 1.4-2.3.2-1.2 0-2.2-.5-2.2-.6 0-.8.9-.6 1.9.3 1.4-.1 1.8-1.2 1.4-1-.4-1.1-.8-.3-1.3.6-.4 1.1-1 1.1-1.4-.3-2.1.1-2.7 1.4-2.2.8.3 1.4.2 1.4-.2-.1-.4 0-.9.1-1.2.7-1.9.7-3.9-.1-3.4-.5.3-.7.9-.4 1.4.3.5.1 1.1-.4 1.4-.5.4-1.2.2-1.5-.3-.4-.5-.2-1.3.4-1.6.6-.4.8-1.6.5-2.8-.5-1.7-.4-1.9.4-.7.9 1.3 1.1 1.3 1.1-.1 0-.8-.6-2.1-1.2-2.8-1.1-1.1-.9-1.1 1.1-.1 1.3.6 2.1.7 1.7.2-.3-.6-.3-1.2.1-1.5.5-.2.3-.3-.2-.1-.6.1-1.1-.9-1.1-2.2 0-2.8 0-2.8 2.9-1.3 2.1 1 2.1 1 .3-.5-2.1-1.7-3.2-5.1-1.3-3.9.6.4.8 0 .4-1-.4-1.1-.1-1.7.8-1.7.8 0 1.5-.5 1.5-1.1 0-.6-.9-.8-2.2-.4-1.6.4-1.9.4-.9-.3.8-.6 1-1.5.5-2.3-.6-1-.3-1 1.1.1 1.7 1.4 1.8 1.4.5-1-1.3-2.5-1.3-2.5.8-.7 1.5 1.4 2.2 1.5 2.8.6.4-.7.3-1-.4-.5-1.9 1.2-2.4-1.5-.6-3 1.8-1.4 1.7-1.4-.4-.4-1.3.7-2.6.9-3 .6-.3-.3 0-.6.7-.6.9 0 1.2-.9.9-2.5-.3-1.3-.2-2.3.1-2.1.3.2 1.3-.6 2.3-1.8 1.2-1.6 1.3-2.7.6-3.7-.8-1.1-.9-1-.4.4.4 1.2.2 1.6-.6 1.1-.7-.5-.8-.3-.3.6.5.9.4 1.1-.3.6-.8-.5-.9-1.3-.3-2.4.4-.9.8-2.9.7-4.3-.1-1.4.4-2.6 1-2.6.9 0 1 .7.3 2.4-.5 1.2-.6 2.3-.3 2.3 1.1 0 2.1-4.6 1.2-5.8-.7-.8-.7-1.2 0-1.2s.9-.7.5-1.7c-.5-1.2-.3-1.4.8-.8.8.5.5-.2-.6-1.5s-1.4-2-.6-1.5c1.1.6 1.3.4.8-.8-.3-.9-.1-1.9.5-2.3.7-.5.8-.2.3.7-.8 1.2-.6 1.2.8 0 .9-.7 1.4-1.7 1.1-2.2-.3-.5.1-.9.8-.9 1 0 1-.2 0-.9-1.7-1-1.5-2.1.6-4.4 1.3-1.5 1.4-1.8.2-1.5-1.8.4-1.5-3.3.3-4.4.6-.4.8-1 .4-1.5-.5-.4-1.2-.1-1.6.6-.6.9-1.1 1-1.5.2-.4-.6-.2-1.1.4-1.1.7 0 1-.7.7-1.4-.4-1.1-.1-1.3 1.1-.9 1.4.5 1.5.3.5-.8-1.4-1.4-1.8-3.3-.5-2.5 1.4.9.8-3.9-.6-5-1.2-.9-1.3-1.2-.2-1.9.9-.6 1.1-.4.5.6-.6 1.1-.5 1.1.5.2 1-.9 1-1.5-.4-2.8-1.9-2-2-3.2-.3-3.8.7-.3.5-.6-.5-.6-1-.1-1.8-.8-1.8-1.7 0-.8-.5-1.2-1-.9-.6.3-1.2 0-1.5-.7-1.7-4.3-24.5 1.6-31.1 8-1.2 1.1-4.1 6-6.5 10.9-2.4 4.8-4.7 9.1-5.2 9.4-.5.3-.8 1-.8 1.5.2 1.7-8.2 18.3-9 17.9-.4-.3-.5.4-.2 1.5.3 1.2 0 2-.8 2-.7 0-1 .3-.7.6.4.3-.9 3.7-2.8 7.4-1.9 3.8-3.4 7.4-3.4 8 0 .5-.4 1-1 1-.5 0-.9.3-.8.7.1.5-.5 2.4-1.4 4.3-.9 1.9-3.2 7.3-5.2 12-4.5 10.3-3.8 8.7-12.7 29-4 9.1-7.6 16.7-8.1 16.8-.4.2-.6.7-.3 1.2.7 1.1-1.5 6-2.7 6-.5 0-.7.4-.3.9.6 1-2.5 8.4-3.7 8.9-.4.2-.4 1-.1 1.9.5 1.2.3 1.4-.7.8-.9-.5-1.1-.4-.6.3.4.6-.1 2.6-1.1 4.4-.9 1.8-1.8 3.9-1.9 4.7-.2.7-.8 1.9-1.5 2.5-.9.8-.9.6-.1-1 .8-1.5.8-2.4-.1-3.3-.8-.8-.6-1.5 1.1-2.7 1.2-.8 2.2-2.1 2.1-2.7 0-.9-.2-.9-.6 0-.2.7-1.2 1.3-2.1 1.3-1.5 0-1.5-.2-.2-1 1.4-.9.7-1.4-1.3-1.1-.5.1-.5-.4 0-1.1.4-.7.8-2.4.9-3.8 0-1.4.3-3.1.7-3.7.4-.6.2-1.5-.4-1.9-.8-.5-.9-.3-.4.6.5.9.4 1.1-.4.6-.6-.4-.9-1.2-.5-1.7.3-.5.9-.7 1.4-.4.5.3 1.2 0 1.6-.6.4-.8.3-.9-.4-.5s-1.2.2-1.2-.4c0-.6-.5-.8-1.1-.4-.8.4-.8 0 0-1.5.7-1.2.9-2.7.5-3.4-.5-.7-.2-.7.9.2 1.5 1.2 1.7 1.2 1.1-.4-.5-1.1-.3-1.6.2-1.2.5.3 1-.3 1-1.3s-.4-1.6-.8-1.4c-.4.3-.8-.5-.8-1.7 0-1.9.2-2 1.7-.8s1.6 1.2.8-.1c-.6-.8-1-1.8-1-2.3 0-.9-1.5-1.1-2.3-.1-.4.4 0 .4.8-.1 1.2-.6 1.3-.5.3.5-1.6 1.7-3 .5-1.6-1.2.6-.7.9-2.1.8-3.1-.2-.9.1-1.5.6-1.1.5.3.7 1 .4 1.5-.4.5-.1.9.5.9.7 0 .9-.7.6-1.6-.4-.9-.1-2.4.6-3.3 1.2-1.4 1.1-1.4-.4-.2-1.5 1.1-1.8 1.1-1.9 0-.1-.8 0-1.9.1-2.4.1-.6.3-2.4.4-4.2 0-1.7.5-3.5 1-4s.7-.1.3.9c-.9 2.5 0 2.2 1.4-.3.9-1.7.8-2-.2-1.4-.8.6-1.1.4-.6-.7.3-.9-.1-2.7-.8-4.2-.8-1.5-1-2.4-.5-2.1.6.4 1-.3 1-1.4 0-1.1.5-2.3 1-2.6.6-.3 1-1.1 1-1.7 0-.7-.5-.6-1.5.2-1.2 1-1.3.8-.6-1.7 1.5-4.8 2.3-6.3 3.4-6.3.6 0 .7-.3.4-.6-.4-.4-1.3-.1-2.2.6-1.8 1.5-2-.1-.3-1.8.9-.9.9-1.2-.1-1.2-.7 0-.9-.5-.6-1 .4-.6 1-.8 1.5-.5.5.3 1.2 0 1.6-.6.4-.7.3-.9-.2-.6-.6.3-1.5-.3-2.2-1.4-.9-1.4-.9-1.9-.1-1.9.7 0 .9-1.1.6-3-.4-1.8-.2-3 .4-3 .6 0 .7.5.3 1.2-.4.7-.3.8.4.4s1.2-.2 1.2.5.3.9.6.6c.4-.4.1-1.3-.5-2.1-.9-1.1-.9-1.6 0-2.2.9-.5.7-1.1-.6-2-1.8-1.3-3-5.8-1.3-4.8 1.2.8 1-1-.4-2.6-.7-.8-.1-.4 1.4.9l2.8 2.4-1.3-2.6c-.6-1.5-1.9-2.8-2.7-3.1-1.1-.3-1.1-.4.3-.5.9 0 1.7-.6 1.7-1.2 0-.5-.6-.7-1.2-.3-.7.4-1 .4-.6 0 .4-.5.3-1.9-.3-3.3-.6-1.8-.6-2.2.3-1.7.8.5.9.2.5-1-.4-1-.3-1.5.3-1.1.6.3 1-.1 1-1s-.4-1.4-.9-1c-.5.3-1.2.1-1.5-.4-.4-.5-.2-1.3.4-1.6.8-.5.8-1.1 0-2-.8-1-.8-1.5 0-2s.8-1 0-2c-.8-.9-.8-1.5 0-2 .5-.3 1-1.1 1-1.6 0-.6-.4-.8-.8-.5-.5.3-.8-2.2-.8-5.5.1-4.4.4-5.8 1.4-5.4.7.3 1.1.1.7-.4-.3-.5 0-1.1.7-1.3.7-.3.5-.7-.6-1.1-1.2-.5-1.5-.3-1 .6.4.7.3.9-.2.4s-.9-1.2-.9-1.5c0-.4-.4-1.2-.8-1.9s.2-1.8 1.5-2.8l2.3-1.7-2.2.7c-2.5.7-2.8.3-1.3-2.5.6-1 .6-2.1.2-2.4-.4-.2-.9-2.2-1-4.3-.2-2.1-1-4.1-1.8-4.6s-1.1-1.3-.8-1.9c.5-.7.1-.9-.9-.5-2.3.9-2.1 0 .2-1.3 1.7-.9 1.9-.7 1.6 1-.2 1.3 0 1.8.7 1.4.5-.4 1.4 0 1.9.7.7 1.2.9 1.1.9-.1.1-1.1.4-1 1.5.4 1.8 2.3 2 1.4.4-1.7-.9-1.8-.9-2 .2-1 1.4 1.4 3.3 1.8 2.5.5-.2-.4.4-.8 1.4-.8 1.5 0 1.6.3.8 1.4-.9 1-.8 1.2.3 1 .8-.2 1.3.2 1.2.8-.1.6.4 1.1 1.1 1.1.7 0 1.3-.6 1.3-1.3 0-.7-.5-1-1-.7-.6.4-.7.1-.2-.6.5-.9 1-1 1.8-.2s1.6.6 3.1-.7c1.1-.9 1.6-1.2 1.3-.5-.5.8 0 1.1 1.3 1 1.2-.1 1.6-.5 1.1-1-1.1-1.1-.3-3.7 1.1-3.7.7 0 .6.5-.1 1.4-.9 1-.8 1.5.3 1.9 1 .4 1.3.1.9-.9-.3-.8.1-1.4.8-1.4 1.1-.1 1-.3-.1-.9-1.1-.7-1.5-2.5-1.4-6.5 0-4.5-.3-5.6-1.5-5.6-1.3 0-1.3-.2-.2-.9.9-.6-.3-1.1-3.8-1.6-2.8-.4-4.9-1-4.7-1.3.2-.4-1-.7-2.7-.8-3 0-9.4-.6-22.6-2.1-8.2-.8-23.4-.9-34.1-.2zm41.4 23c.3.3-.4.5-1.4.6-1.1.1-2-.2-2-.7 0-.8 2.5-.8 3.4.1zm8.6-.1c0 .5-.2 1-.4 1-.3 0-.8-.5-1.1-1-.3-.6-.1-1 .4-1 .6 0 1.1.4 1.1 1zm101.3 33.2c-.6.7-.9 2.5-.8 4 .1 1.9-.2 2.5-1.2 2.1-.8-.3-1.1-.9-.6-1.2.5-.3.9-1.4 1-2.4.1-3.3.3-3.7 1.4-3.7.8 0 .8.4.2 1.2zm-26 12.4c-.6.3-1 1.6-.7 2.9.2 1.3 0 2.6-.5 3-.6.3-.8 1.2-.5 1.9.6 1.7-2.3 2.9-4.2 1.8-1.3-.8-1.3-1 0-2.1.8-.7 1.2-2 .9-2.9-.3-1-.1-1.3.4-.7 1.1 1.3 3.3 1.7 3.3.6 0-.5-.6-1.1-1.2-1.4-1-.3-1-.7.1-2 .7-1 1.9-1.7 2.5-1.6.8 0 .7.2-.1.5zM161.4 94.1c-.3.5-1 .7-1.5.3-.5-.3-.7-1-.3-1.5.3-.5 1-.7 1.5-.3.5.3.7 1 .3 1.5zm27.6 6.3c0 .2-.7.7-1.6 1-.8.3-1.2.2-.9-.4.6-1 2.5-1.4 2.5-.6zm-32 9.6c0 .5-.2 1-.4 1-.3 0-.8-.5-1.1-1-.3-.6-.1-1 .4-1 .6 0 1.1.4 1.1 1zm-1 7.9c0 .6-.4 1.2-.8 1.5-.5.3-.9-.1-.9-.9s.4-1.5.9-1.5c.4 0 .8.4.8.9zm79.4 12.3c-.9 1.4-2.3-.2-1.7-1.8.4-1.2.8-1.3 1.4-.3.4.7.5 1.7.3 2.1zm-7.9 15.8c-.3.5-1.1 1-1.6 1-.6 0-.7-.5-.4-1 .3-.6 1.1-1 1.6-1 .6 0 .7.4.4 1zM183 164.2c0 1.9-1.6.5-1.7-1.4-.2-1.8 0-2 .7-.8.5.8 1 1.8 1 2.2zm-45.3 24.4c-.3.3-1.2.4-1.9.1-.8-.3-.5-.6.6-.6 1.1-.1 1.7.2 1.3.5zm65.7 15.6c-.3.4-1.1.8-1.7.7-.9 0-.9-.2 0-.5.7-.3.9-1.3.6-2.2-.4-1.4-.3-1.4.5-.2.6.8.8 1.8.6 2.2zm53.9 7.3c-.3.9-.8 1.4-1 1.1-.3-.3-.2-.9.2-1.5.9-1.6 1.5-1.3.8.4zm-57.1 1.2c-.6.2-.9 1-.6 1.5.4.7.2.8-.5.4-1.3-.9-.5-2.6 1.2-2.5.9 0 .8.2-.1.6zm56.4 5.3c0 1.2-.4 1.6-.9 1.1s-.6-1.4-.3-2c1-1.5 1.2-1.4 1.2.9zm-219 16c-.3 4.2-1.2 4.6-1.2.5 0-1.9.3-3.5.7-3.5.4 0 .6 1.3.5 3zm215.1 10.5c0 .8-.4 1.2-.9.9-.5-.3-.6-1-.3-1.5.9-1.3 1.2-1.1 1.2.6zM97.3 257.1c-.8.8-1.3.7-1.8-.2-.5-.8-.4-1 .3-.5.7.4 1.2.2 1.2-.5s.3-.9.7-.6c.4.4.2 1.2-.4 1.8zM49 272.4c0 .2-.7.7-1.6 1-.8.3-1.2.2-.9-.4.6-1 2.5-1.4 2.5-.6z"/><path d="M258 82.5c-.7.9-1 1.8-.6 2.2.3.3.6.1.6-.6s.4-1 .8-.7c.5.3.9-.1.9-.9 0-1.9-.2-1.9-1.7 0zM207.9 20.7c-1.3 1.6-1.2 1.7.4.4.9-.7 1.7-1.5 1.7-1.7 0-.8-.8-.3-2.1 1.3zM141 30c0 .5.5 1 1.1 1 .5 0 .7-.5.4-1-.3-.6-.8-1-1.1-1-.2 0-.4.4-.4 1zM124.3 31.7c-.3.7-1 1-1.6.6-.6-.4-.7-.1-.2.7.6 1 1.1.9 2.1-.4.8-1.2 1.3-1.3 1.6-.5.3.9.6.9 1-.2.4-1 0-1.6-.9-1.6-.8 0-1.7.6-2 1.4zM192 34c-.9.6-1 1-.3 1 .6 0 1.5-.5 1.8-1 .8-1.2.4-1.2-1.5 0zM103.5 35c-.4.6-1 .8-1.4.6-.4-.3-.8.1-.8.9 0 1.1.4 1.2 1.3.4.7-.6 1.8-.8 2.3-.4.7.3.8 0 .5-.9-.7-1.9-1.1-2-1.9-.6zM106.6 35.2c.3.5 1 .6 1.5.3 1.3-.9 1.1-1.2-.6-1.2-.8 0-1.2.4-.9.9zM186.1 35.6c0 1.1.3 1.4.6.6.3-.7.2-1.6-.1-1.9-.3-.4-.6.2-.5 1.3zM186.8 38.7c.7.3 1.6.2 1.9-.1.4-.3-.2-.6-1.3-.5-1.1 0-1.4.3-.6.6zM186.7 41c.8.9.9 1.9.2 3.1-.8 1.5-.6 1.7.6 1.3.9-.4 1.3-.9 1.1-1.2-.3-.3 0-1.2.6-2.1.7-.9.8-1.3.4-.9-.5.4-1.6.2-2.5-.4-1.3-1-1.4-1-.4.2zM186.5 49c-.3.5-.5 1-.3 1.1 3.3.8 3.8.7 2.7-.7-1.4-1.7-1.6-1.7-2.4-.4zM187.4 61.9c-.1 1.8.4 3.2 1.4 3.6 1.2.4 1.2.3.3-.9-.9-1.1-.9-1.5.1-1.9.9-.4 1-.6.1-.6-.7-.1-1-.8-.7-1.6.4-.8.2-1.5-.3-1.5-.4 0-.9 1.3-.9 2.9zM188.7 71.7c1.8 2.6 1.7 2.7-.2 1.9-1.5-.5-1.7-.4-.8.5 1.9 1.9 3.4.2 2.1-2.6-.6-1.4-1.5-2.5-2-2.5s0 1.2.9 2.7zM287 74.1c0 .5.5.7 1 .4.6-.3 1-.8 1-1.1 0-.2-.4-.4-1-.4-.5 0-1 .5-1 1.1zM188.3 83.5c-.3.9-.3 1.9.1 2.2.3.4.6-.1.6-1 0-.8.6-1.8 1.3-2 .9-.4.9-.6-.1-.6-.7-.1-1.5.6-1.9 1.4zM282.6 94.6c-.5 1.4-.4 1.5.9.4 1.7-1.4 1.9-2 .6-2-.5 0-1.2.7-1.5 1.6zM187.6 96.5c-.3.8-.1 1.5.4 1.5.6 0 1-.7 1-1.5s-.2-1.5-.4-1.5-.6.7-1 1.5zM249 99.9c0 .5.8 1.5 1.8 2.2 1.5 1.2 1.6 1.2.5-.2-.7-.9-1-1.9-.6-2.2.3-.4.1-.7-.5-.7-.7 0-1.2.4-1.2.9zM161.3 103.5c0 .8.4 1.2.9.9.5-.3.6-1 .3-1.5-.9-1.3-1.2-1.1-1.2.6zM159.5 107.1c-.4.6-.5 1.2-.2 1.5.2.3.7-.2 1-1.1.7-1.7.1-2-.8-.4zM187.7 108.5c-.4.8-.3 1.6.1 1.9.4.3.9-.4.9-1.5.2-2.3-.3-2.5-1-.4zM244.9 108.7c-.1.5-.1 1.1 0 1.5 0 .5-.3.8-.8.8s-1.2.8-1.6 1.7c-.5 1.4-.4 1.5.6.6 1-1 1.5-.9 2.6.5 1.3 1.5 1.3 1.5.4-.5-.8-1.6-.8-2.3.2-2.6.9-.4.9-.6-.1-.6-.7-.1-1-.6-.7-1.1.3-.6.4-1 .1-1-.3 0-.7.3-.7.7zM186.6 122.6c-.5 1.4-.4 1.5.9.4 1.7-1.4 1.9-2 .6-2-.5 0-1.2.7-1.5 1.6zM277 122c0 .5.5 1 1.1 1 .5 0 .7-.5.4-1-.3-.6-.8-1-1.1-1-.2 0-.4.4-.4 1zM153 122.4c0 .2.8 1 1.8 1.7 1.5 1.3 1.6 1.2.3-.4s-2.1-2.1-2.1-1.3zM185.6 131.8c-.3.5.1.9.9.9s1.2-.4.9-.9c-.3-.4-.7-.8-.9-.8-.2 0-.6.4-.9.8zM232.5 135c-1 1.1-1.4 2-1 2 .4 0 0 1-1.1 2.2-1 1.2-1.3 1.8-.5 1.3 1-.6 1.3-.4.9.7-.4.8 0 1.5.7 1.5 1 0 1.1-.5.4-1.9-.7-1.2-.6-1.8.2-1.8.6 0 .9-.7.5-1.5-.3-.8.2-1.9 1.2-2.4.9-.5 1.4-1.2 1.1-1.5-.3-.4-1.4.3-2.4 1.4zM150.9 134.2c-.1.2-.3 1.3-.4 2.5-.2 1.6.2 2 1.3 1.5 1.1-.4 1.2-.7.4-1-.7-.2-1.2-.8-1.2-1.3 0-.6.5-.7 1.2-.3.7.4.8.3.4-.4-.7-1.1-1.4-1.5-1.7-1zM271 142c0 .6.7 1 1.5 1s1.5-.2 1.5-.4-.7-.6-1.5-1c-.8-.3-1.5-.1-1.5.4zM82.5 144c-.3.5-.1 1 .4 1 .6 0 1.1-.5 1.1-1 0-.6-.2-1-.4-1-.3 0-.8.4-1.1 1zM183.6 147.7c-.6 1.4-.5 1.5.5.6.7-.7 1-1.5.7-1.8-.3-.3-.9.2-1.2 1.2zM86.8 154.7c.7.3 1.6.2 1.9-.1.4-.3-.2-.6-1.3-.5-1.1 0-1.4.3-.6.6zM221.3 161c-.1 1.1.1 2.2.5 2.4.4.2.8-.7.8-2 .1-1.3-.1-2.4-.5-2.4s-.7.9-.8 2zM218.9 162.2c-.6 2.2-.4 3.5.6 3.5.7 0 1-.8.7-1.9-.4-1.6-1-2.3-1.3-1.6zM266.6 167.9c-1.7 1.9-1.7 1.9 0 1.7.9-.2 1.8-1 2-1.9.3-2.1.1-2.1-2 .2zM182 170c0 .5.5 1 1.1 1 .5 0 .7-.5.4-1-.3-.6-.8-1-1.1-1-.2 0-.4.4-.4 1zM75 172.1c0 .5.5.7 1 .4.6-.3 1-.8 1-1.1 0-.2-.4-.4-1-.4-.5 0-1 .5-1 1.1zM67.5 173c-.3.5-.1 1 .4 1 .6 0 1.1-.5 1.1-1 0-.6-.2-1-.4-1-.3 0-.8.4-1.1 1zM142.6 174.2c.3.5 1 .6 1.5.3 1.3-.9 1.1-1.2-.6-1.2-.8 0-1.2.4-.9.9zM64.5 174.9c-.3.5-.2 1.2.3 1.5.5.3.9-.1.9-.9 0-1.7-.3-1.9-1.2-.6zM182 177.4c0 .2.8 1 1.8 1.7 1.5 1.3 1.6 1.2.3-.4s-2.1-2.1-2.1-1.3zM264.2 178.5c-.7.8-.9 1.5-.4 1.5s1.5-.7 2.2-1.5c1.6-1.9-.1-1.9-1.8 0zM182.3 182.5c0 .8.4 1.2.9.9.5-.3.6-1 .3-1.5-.9-1.3-1.2-1.1-1.2.6zM262 185.9c0 .5.7 1.2 1.6 1.5 1.4.5 1.5.4.4-.9-1.4-1.7-2-1.9-2-.6zM52 188.5c-1.1 1.3-1 1.4.4.9.9-.3 1.6-1 1.6-1.5 0-1.3-.6-1.1-2 .6zM137 192.2c0 .4.4.8.9.8.6 0 1.2-.4 1.5-.8.3-.5-.1-.9-.9-.9s-1.5.4-1.5.9zM46.6 195.9c-.3.5.1 1.2 1 1.5.8.3 1.3.2.9-.3-.3-.5.1-1.2.7-1.4.8-.4.7-.6-.4-.6-.9-.1-1.9.3-2.2.8zM207.5 196c.3.5.8 1 1.1 1 .2 0 .4-.5.4-1 0-.6-.5-1-1.1-1-.5 0-.7.4-.4 1zM43.6 200.7c-.6 1.4-.5 1.5.5.6.7-.7 1-1.5.7-1.8-.3-.3-.9.2-1.2 1.2zM261.3 200.5c0 .8.4 1.2.9.9.5-.3.6-1 .3-1.5-.9-1.3-1.2-1.1-1.2.6zM258.6 206.8c-.3.5.1.9.9.9s1.2-.4.9-.9c-.3-.4-.7-.8-.9-.8-.2 0-.6.4-.9.8zM40.5 209c-.3.6.1.7.9.4 1.8-.7 2.1-1.4.7-1.4-.6 0-1.3.4-1.6 1zM127.3 218.5c0 .8.4 1.2.9.9.5-.3.6-1 .3-1.5-.9-1.3-1.2-1.1-1.2.6zM123.3 219.7c.4.3-.1 1.5-1 2.6-1.7 1.9-1.7 2 .3.9 2.8-1.5 3.9-4.2 1.7-4.2-.9 0-1.3.3-1 .7zM38.8 221.3c-.9.7-1.3 1.8-1 2.4.5.7 1.2.2 1.9-1.3.6-1.3 1-2.4 1-2.4-.1 0-1 .6-1.9 1.3zM255 223.9c0 .6.4 1.3 1 1.6.6.3.7-.1.4-.9-.7-1.8-1.4-2.1-1.4-.7zM195.8 227.1c-.4.9.2 2.1 1.5 2.9 1.9 1.1 2 1.1 1.1-.1-.6-.8-1.3-2.1-1.6-2.8-.4-1.3-.5-1.3-1 0zM254.3 228.5c0 1.1.4 1.2 1.4.4.7-.6 1.3-1.3 1.3-1.5 0-.2-.6-.4-1.3-.4-.8 0-1.4.7-1.4 1.5zM118.9 228.3c-.1.4-.2 1-.3 1.4-.1.5-.5 1.3-.9 2-.4.6-.2 1.5.4 1.9.7.4.9.3.5-.4-.3-.6.2-1.5 1.1-2.1 1.4-.8 1.6-1.2.6-2.2-.7-.7-1.4-1-1.4-.6zM195.3 232.5c0 .8.4 1.2.9.9.4-.3.8-.9.8-1.5 0-.5-.4-.9-.8-.9-.5 0-.9.7-.9 1.5zM195.8 235.7c.7.3 1.6.2 1.9-.1.4-.3-.2-.6-1.3-.5-1.1 0-1.4.3-.6.6zM197.5 240.1c-.4.6-.5 1.2-.2 1.5.2.3.7-.2 1-1.1.7-1.7.1-2-.8-.4zM196 243.4c0 .2.8 1 1.8 1.7 1.5 1.3 1.6 1.2.3-.4s-2.1-2.1-2.1-1.3zM255 244.1c0 .5.5.7 1 .4.6-.3 1-.8 1-1.1 0-.2-.4-.4-1-.4-.5 0-1 .5-1 1.1zM252.7 248.4c-.4.9-.2 1.8.4 2.1.5.4.7 1 .4 1.5-.3.5-.1 1.1.4 1.4.5.3.7-.8.6-2.5-.3-3.6-1-4.6-1.8-2.5zM43.5 252c-.3.5-.1 1 .4 1 .6 0 1.1-.5 1.1-1 0-.6-.2-1-.4-1-.3 0-.8.4-1.1 1zM176.1 255.6c0 1.1.3 1.4.6.6.3-.7.2-1.6-.1-1.9-.3-.4-.6.2-.5 1.3zM178.6 255.3c.3 1 .9 1.5 1.2 1.2.3-.3 0-1.1-.7-1.8-1-.9-1.1-.8-.5.6zM253.4 256.7c.2.9.8 1.8 1.5 1.9.6.1.7 0 .2-.2-.6-.3-.7-1.2-.4-2 .3-.8.1-1.4-.5-1.4s-.9.8-.8 1.7zM23.4 261.8c.4.3 1.4.7 2.2.8.9.1 1.3 0 1-.4-.4-.3-1.4-.7-2.2-.8-.9-.1-1.3 0-1 .4zM78.8 269.6c-1.6.8-2.8 2-2.7 2.7 0 .9.2.9.6-.1.2-.6.9-1 1.4-.6.5.3.9 0 .9-.5 0-.6.5-1.1 1.1-1.1.6 0 .8.7.5 1.6-.3.8-.2 1.2.3.9.6-.3.9-1.4.8-2.5-.1-1.1-.1-2-.2-2 0 .1-1.2.8-2.7 1.6zM69.5 273.1c-.4.6-.5 1.2-.2 1.5.2.3.7-.2 1-1.1.7-1.7.1-2-.8-.4zM57.3 275.7c0 .9.4 1 1.4.2.7-.6 1.3-1.2 1.3-1.4 0-.1-.6-.2-1.3-.2-.8 0-1.4.6-1.4 1.4zM233.6 293.8c-.2.4.4.8 1.5.8 1 0 1.9-.4 1.9-.8s-.6-.8-1.4-.8c-.8 0-1.7.4-2 .8z"/></svg>