<svg viewBox="0 0 746 420" xmlns="http://www.w3.org/2000/svg"><path d="m110.43 420h-110.43v-419.87h746v243c-.7.91-1.72.88-2.71.9-11.1.25-22.15 1.09-33.2 2.17-11.77 1.16-23.26 3.73-34.76 6.29-1.81.4-3.64.68-5.41 1.24a2.28 2.28 0 0 1 -.81.46 108 108 0 0 0 -12 3.27 307.91 307.91 0 0 0 -49.51 20q-9.37 4.79-18.4 10.21c-1 .58-1.85 1.53-3.18 1.32-1.53-.87-3.12-1.68-3.88-3.42-.31-.66.12-1.19.32-1.75a3.16 3.16 0 0 0 -.74-3.58 2.8 2.8 0 0 0 -3.23-.69 3.22 3.22 0 0 0 -2.08 3 3 3 0 0 1 -.1 1.46c-1.17 1.19-1.6 1.17-2.3-.13a7.15 7.15 0 0 0 -.4-.84 1.91 1.91 0 0 0 -2.37-1 1.94 1.94 0 0 0 -1.23 2.4c.06.37.25.7.34 1.06.39 1.6-.55 2.5-2.44 2.36-.67-.38-.7-1.12-1-1.73-1.27-2.92-3.7-3.93-6.62-2.72-.68.28-1.32.71-2.1.34s-.75-1.25-1-1.92c-1.1-2.62-3.26-3.88-6-3.14a3 3 0 0 1 -3.8-1.39c-.94-1.39-1.9-2.77-2.83-4.16-8.77-13.2-17.72-26.29-26.56-39.45q-14.88-22.13-29.83-44.22c-4.59-6.8-9.09-13.66-13.8-20.39a5.34 5.34 0 0 1 -1.23-2.86 8.55 8.55 0 0 0 .22-5.93 46 46 0 0 0 -7.18-15c-5-6.64-10.84-12.12-19-14.69a14.31 14.31 0 0 0 -3.82-.79 5.42 5.42 0 0 1 -4.71-2.79 142.19 142.19 0 0 0 -19.18-23.93c-2.56-2.61-5.39-4.94-8.14-7.37-8.65-7-18-12.9-28.86-15.79a30.79 30.79 0 0 0 -5.32-.89c-.63-.05-1.24-.15-1.7.43a41.84 41.84 0 0 0 -1.45 14.33c.52 8.24 2.74 16.09 5.08 23.93 1.75 3.91 3.19 8 5.09 11.81a145.14 145.14 0 0 0 15.83 25.2 5.15 5.15 0 0 1 1 5c-1.17 4.24-.69 8.51.43 12.71a45.45 45.45 0 0 0 15.87 24 18.47 18.47 0 0 0 2.5 1.62c1.53 1.62 3.55 2.06 5.63 2.37.82.33 1.14 1.12 1.58 1.78q12.6 18.82 25.31 37.56 15.36 22.8 30.74 45.58l16.28 24.09c1.07 1.56 1.5 2.9 0 4.45a4.28 4.28 0 0 0 -.94 2.78c-.08 1.27-.78 1.82-2 2-3.87.48-5.08 1.78-5.2 5.6a5.37 5.37 0 0 1 -.55 1.75 3.78 3.78 0 0 1 -.65.64 1.55 1.55 0 0 0 -.38 2.13c.56.79 1.35.7 2.14.32.43-.21.8-.58 1.33-.58.72 0 1 .58 1.43 1.05a3.44 3.44 0 0 0 2.24 1.52 4.48 4.48 0 0 1 1.45 1.7 3.62 3.62 0 0 0 .67 1.65 1.73 1.73 0 0 1 .18 2.34c-.62.77-1.4.64-2.2.3a7.17 7.17 0 0 0 -1-.36 4.67 4.67 0 0 0 -5.12 1.74 5 5 0 0 0 -.07 5.28 4.81 4.81 0 0 0 4.91 1.88 13.43 13.43 0 0 0 1.62-.42 1.59 1.59 0 0 1 1.26.12c1.42.75 2.7 4.68 2 6.2-.5 1-.66 2.08.39 2.83a1.91 1.91 0 0 0 2.69-.27l.12-.17a2.67 2.67 0 0 1 3.3-.9c1 .32 2.23.23 3.16 1 .6.91.17 1.64-.41 2.35a309.74 309.74 0 0 0 -27.29 39.3c-4.11 7-7.89 14.23-11.43 21.57a7.26 7.26 0 0 1 -2.07 2.81h-330.92c-1-1.09 0-1.84.51-2.62a17.27 17.27 0 0 0 1.36-16.21 17 17 0 0 0 -20.21-9.78c-1.19.34-2.6.22-3.52 1.31a17.53 17.53 0 0 0 -7.45 7.77c-2.71 5.67-2.27 11.15.82 16.52.56.95 1.63 1.7.92 2.95z" fill="#1e3d52"/><path d="m468.87 420c-.2-.75.31-1.31.59-1.9a306.42 306.42 0 0 1 39-61.84 9.08 9.08 0 0 0 1.44-1.93c-.28-1.31.7-2 1.38-2.87q2.13-2.57 4.49-4.93a83.18 83.18 0 0 1 7.9-8.9 307.06 307.06 0 0 1 47.88-40.9c.82-.56 1.67-1.07 2.5-1.61 3.06-2.16 6.22-4.18 9.37-6.19a4.74 4.74 0 0 1 2.45-.58 10.77 10.77 0 0 0 2.27-1.25 306.47 306.47 0 0 1 79.86-33.77c.3-.08.61-.11.91-.17a.38.38 0 0 1 .5-.07 2.16 2.16 0 0 1 2.24 2c.28 1.63 1 1.88 2.53 1.08a2.43 2.43 0 0 1 2.3 0 21 21 0 0 1 3.62 1.83c1.87 1.34 3.64 1.28 5.76.51a18.86 18.86 0 0 1 18.82 2.8 18.63 18.63 0 0 1 7.53 14.19 3.8 3.8 0 0 0 1.86 3.22c2.61 1.68 5.11 3.53 7.63 5.34 2.31 1.66 2.42 2.2 1 4.76a8.38 8.38 0 0 0 11.4 11.54 5.91 5.91 0 0 0 2.21-2.2c.71-1.17 1.67-2.07 3.19-1.78a3.29 3.29 0 0 1 2.82 2.62 4 4 0 0 0 1.46 2.32 7.19 7.19 0 0 1 2.2 2.93v7.47c-.79.57-1.41 0-2.06-.32-5-2.16-9.82-.88-12.47 3.31a9.93 9.93 0 0 0 .71 11c2.13 2.73 6.46 3.91 10 2.89 1.25-.36 2.34-1.55 3.83-.87v8.59c-.91 3.23-2.37 6.31-2.09 9.84.23 2.83 1.47 5.37 2.09 8.09v6.75c-.59 2.64-2.29 4.83-3 7.42a19.82 19.82 0 0 0 1 14.79 38.82 38.82 0 0 1 2 5v10.45c-.94.76-1.77.11-2.59-.25a12 12 0 0 0 -11.24.7 12.67 12.67 0 0 0 -3.8 18.41c.5.7 1.5 1.28.85 2.41z" fill="#ffa283"/><path d="m746 304.25c-1.31-1-2.61-2.1-3.92-3.13a1.88 1.88 0 0 1 -.71-1.61 2.07 2.07 0 0 0 -1.6-2.21 2.12 2.12 0 0 0 -2.51 1.12 8.57 8.57 0 0 1 -9.65 3.72 9.36 9.36 0 0 1 -5.61-13.84c.13-.21.28-.41.4-.63.64-1.17.6-1.55-.49-2.35-2-1.43-3.94-2.82-5.92-4.21-1.07-.75-2.14-1.5-3.25-2.18a2.56 2.56 0 0 1 -1.38-2.43 17.17 17.17 0 0 0 -3-9.84 17.92 17.92 0 0 0 -13.63-8.35 18.42 18.42 0 0 0 -10.3 1.76 2.61 2.61 0 0 1 -2.64 0c-1.79-1-3.61-1.93-5.41-2.91a1.63 1.63 0 0 0 -2 .14c-1.89 1.4-3.58.61-3.68-1.74a2.89 2.89 0 0 0 -1.53-2.34v-.08c3.83-1.24 7.78-2 11.71-2.9a299.72 299.72 0 0 1 34.49-5.51q14-1.42 28-1.54c.87 0 1.73 0 2.6-.06v10.77c-.65.58-1.4.29-2.12.23a2.73 2.73 0 0 0 -2.85 1.27 2.62 2.62 0 0 0 .1 3 2.71 2.71 0 0 0 3 1.06c.65-.12 1.31-.48 1.93.07v8.21c-.78.94-1.85.5-2.79.54a7.62 7.62 0 0 0 -7.49 5.58 7.5 7.5 0 0 0 6.86 9.75c1.16.06 2.38-.21 3.42.55z" fill="#fed588"/><path d="m110.43 419.87a8.22 8.22 0 0 0 -1.23-1.87c-6.07-8.9-3-21.37 6.48-26.1 4.32-.44 7.89 1.46 11.14 3.88a22.62 22.62 0 0 1 9.31 15.11 32.31 32.31 0 0 1 .13 6.49 3.31 3.31 0 0 1 -1.2 2.44z" fill="#ccc0f2"/><path d="m729.22 420a13.86 13.86 0 0 1 -3.9-7c-.88-5.22.27-9.89 4.42-13.28a13 13 0 0 1 14.77-1.75l1.49.75v21.28z" fill="#ffd588"/><path d="m746 327.75a10.8 10.8 0 0 1 -9.18 1.9 10.06 10.06 0 0 1 -7.61-9.07c-.22-5.07 2.28-9.19 6.77-10.63a10.21 10.21 0 0 1 10 1.76z" fill="#ffd588"/><path d="m135.05 419.87c.11-1.86.43-3.69.39-5.56a21.61 21.61 0 0 0 -6.86-15.77 21.89 21.89 0 0 0 -11.21-5.88 3.4 3.4 0 0 1 -1.69-.71c8.82-5.1 20.76-1.09 24.94 8.48 2.72 6.23 2.06 12.23-1.71 17.89-.33.49-1 .82-.87 1.56z" fill="#ddd2fc"/><path d="m746 284.11c-4.27 1.22-8.25-.2-10.4-3.71a8.7 8.7 0 0 1 6.72-13.06 10.39 10.39 0 0 1 3.69.36z" fill="#ffa283"/><path d="m746 388.17a21.35 21.35 0 0 1 -4.78-16.51 20 20 0 0 1 4.78-10.72z" fill="#fed588"/><path d="m746 259.49c-1.41 1-2.86 1.48-4.52.54a3.71 3.71 0 0 1 -1.76-4.31 3.62 3.62 0 0 1 3.45-2.6 5.54 5.54 0 0 1 2.83.78z" fill="#ffa283"/><path d="m746 354.23a14.51 14.51 0 0 1 -1.36-15.92 7.52 7.52 0 0 1 1.36-2z" fill="#fed588"/><path d="m108.52 327c-.16-1.85-.34-3.7-.47-5.56a67 67 0 0 1 31.5-61.3c.47-.29 1-.53 1.47-.79 3.75-1.4 7.48-.4 11.16.2a82.71 82.71 0 0 1 42 20 79.61 79.61 0 0 1 16.19 19.57 3.83 3.83 0 0 1 .56 3c-.23.92-1.09 1.14-1.78 1.51q-17.44 9.26-35.36 17.56-17 7.81-34.24 14.81c-7.66 3.06-15.31 6.19-23.18 8.72-2.8.9-3.38.62-4.51-2.12a64 64 0 0 1 -3.66-12.49 4.43 4.43 0 0 1 .32-3.11z" fill="#f0077c"/><path d="m669.11 116.34a43.53 43.53 0 1 1 -50.93-70.46c.52-.33 1.08-.61 1.62-.91 2-.89 4-.65 6.09-.33a54.62 54.62 0 0 1 46 44.64 53.39 53.39 0 0 1 -.75 22.52 12.74 12.74 0 0 1 -2.03 4.54z" fill="#ffa283"/><path d="m108.52 327a84.93 84.93 0 0 0 2.79 11.39c.6 1.63 1.2 3.27 1.9 4.86.55 1.24.73 1.29 2 .86 2.76-.94 5.54-1.86 8.26-2.9 6-2.3 12.08-4.59 18.06-7 6.56-2.68 13-5.52 19.56-8.3q14.83-6.34 29.24-13.58c6.73-3.36 13.38-6.86 20.07-10.3a1.44 1.44 0 0 1 .77-.44 68 68 0 0 1 21.52 6.66c1 .47 2.09.87 2.46 2.09a1.94 1.94 0 0 1 -1.15 2.26c-5.14 2.81-10.13 5.91-15.5 8.29a21 21 0 0 1 -3.68 2.16c-6.9 3.55-13.83 7-20.82 10.42q-18.87 9.13-38.23 17.16c-9.29 3.87-18.65 7.55-28.14 10.89a3.6 3.6 0 0 1 -2.7.14 8.27 8.27 0 0 0 -2.14.61c-12.8 4.41-25.71 8.47-39 11.16a95.84 95.84 0 0 1 -14 1.9 28.16 28.16 0 0 1 -7.6-.49 12.07 12.07 0 0 1 -1.78-.52c-2.92-1.14-3.91-3.25-3-6.25a15.64 15.64 0 0 1 2.5-4.55 58 58 0 0 1 8.9-9.24c9.09-7.87 19-14.53 29.2-20.92 3.44-2.19 6.91-4.36 10.51-6.36z" fill="#fea183"/><path d="m574.52 295.65c-.39.31-.76.64-1.16.91a306.82 306.82 0 0 0 -55.92 49.14c-.37.41-.79.78-1.19 1.16a12.9 12.9 0 0 1 -4.41.39 4.84 4.84 0 0 1 -4.42-6.45 9.77 9.77 0 0 0 .66-1.92c.18-1.51-.61-2.65-2-2.52a9 9 0 0 1 -8.59-3.37l-1.1-1.49a8.15 8.15 0 0 1 -.46-8.76 19.12 19.12 0 0 0 1.66-3.32c1-2.74 3.23-3.84 6.89-3.58a3.69 3.69 0 0 0 -1-1.93q-20.08-29.91-40.29-59.79c-11.59-17.22-23.28-34.37-34.8-51.63-.82-1.23-1.84-2.4-1.44-4.07a4.47 4.47 0 0 1 3.41-2.13c1.62.65 2.39 2.13 3.26 3.46 5.54 8.4 11.24 16.7 16.86 25q15.72 23.38 31.52 46.69 12.47 18.45 24.92 36.91c.88 1.3 1.57 2 3.26 1.09a3.39 3.39 0 0 1 4.58 1.41v.09a3.45 3.45 0 0 1 -1 4.62 4.45 4.45 0 0 1 4.5-.55 2 2 0 0 0 2.37-.54 6.59 6.59 0 0 1 4.53-1.85c2.7-.14 3.52-1.91 1.93-4.08a10.85 10.85 0 0 1 -1.91-6.68 5 5 0 0 0 -.92-3c-5.53-8.25-11.15-16.43-16.69-24.67q-16.9-25.13-33.87-50.21-12.3-18.31-24.7-36.59c-.74-1.1-1.44-2.19-1.11-3.61a4.89 4.89 0 0 1 3.35-2.22 4.77 4.77 0 0 1 2.52 2.36q11.89 17.71 23.86 35.37 15.46 22.94 31 45.87c6.56 9.73 13.18 19.43 19.69 29.19 1.53 2.29 3.21 2.46 5.07.32 1.58-1.82 3.35-2.9 5.83-2.57a2.67 2.67 0 0 0 2.25-.68 7 7 0 0 1 2.44-1.32c2.36-.86 2.72-2 1.22-4.07s-2.79-4.11-4.19-6.16-1.61-2-3.65-.54a3.17 3.17 0 0 1 -.89.23 2.93 2.93 0 0 1 -1.3-.13c-2.91-1.63-3.46-3.45-1.9-6.27a2.39 2.39 0 0 1 .68-.63c1.35-.68 1.08-1.5.37-2.54-2.69-4-5.29-8-8-11.91-6.78-10-13.47-20-20.21-29.93l-30.11-44.59c-2.4-3.55-4.78-7.11-7.19-10.64a4.64 4.64 0 0 1 -1-3.29 4.88 4.88 0 0 1 3.37-2.21 4.4 4.4 0 0 1 2.58 2.27c5.1 7.72 10.34 15.35 15.51 23l31.68 47c9.27 13.75 18.62 27.45 27.81 41.26 1.18 1.77 2.3 2.88 4.66 2.3a11.27 11.27 0 0 1 5.17.32 6.43 6.43 0 0 1 3.23-1.67 5.52 5.52 0 0 1 6.15 3.86c.17.52.24 1.08.36 1.62.92 1.35.4 3.4-1.2 4.79a13.36 13.36 0 0 0 -1.36 1c3.64-2.43 6.33-2.26 8.66.53.38.6.78 1.19.17 1.95z" fill="#2efcdf"/><path d="m124.9 361.65a60.77 60.77 0 0 1 6.42-2.46c22.08-8.19 43.68-17.52 64.8-27.81q10.63-5.17 21.09-10.68c.33-.17.68-.3 1-.45 1.16.18 1.38 1.13 1.6 2a83.65 83.65 0 0 1 1.7 30.27 90.32 90.32 0 0 1 -2 10.59 15.38 15.38 0 0 1 -2.79 6.32 63.1 63.1 0 0 1 -20.12 11.08 67 67 0 0 1 -70.6-17.59c-.4-.4-.74-.85-1.1-1.27z" fill="#f0087c"/><path d="m67.57 72.66a34 34 0 0 1 -16.86 7.75 34.2 34.2 0 0 1 -27.78-7.27 34.12 34.12 0 0 1 -12.78-22.62c-1.41-10.23 1.4-19.31 7.85-27.26a31.69 31.69 0 0 1 9.66-8.07c5.92-1 11.33 1 16.48 3.37 13.66 6.39 22.1 17.1 25.24 31.87a40.9 40.9 0 0 1 -.38 18.57c-.36 1.32-1.09 2.41-1.43 3.66z" fill="#0095c2"/><path d="m399.16 367.34a34.63 34.63 0 0 1 -17.92 8.09 33.19 33.19 0 0 1 -20.62-3.4c-10.54-5.46-17-14.13-18.94-25.9a34.13 34.13 0 0 1 7.32-27.62 31.63 31.63 0 0 1 8-7.22 3.43 3.43 0 0 1 1.69-.73 8.67 8.67 0 0 1 5.41-.62 44.32 44.32 0 0 1 36.9 50.64q-.21 1.33-.5 2.64c-.25 1.45-1 2.71-1.34 4.12z" fill="#0095c2"/><path d="m411.81 95.18a55.31 55.31 0 0 1 6.87 6 139.83 139.83 0 0 1 21.26 26.1 2.92 2.92 0 0 0 2.64 1.61 22.93 22.93 0 0 1 11.42 3.75 45.19 45.19 0 0 1 20 26.65 5.52 5.52 0 0 1 .11.92 2.57 2.57 0 0 1 -1.07 1.66c-3.29 2.47-6.69 4.8-10.06 7.16a2 2 0 0 1 -1.22.36 3.09 3.09 0 0 1 -.57-.06 1.35 1.35 0 0 1 -.71-.45c-1.56-3.09-3.15-6.16-4.3-8.39a36.34 36.34 0 0 1 2 8.25 2 2 0 0 1 -1.09 2c-1 .65-1.87 1.44-2.87 2.06a5.22 5.22 0 0 0 -2.68 3.38c-1.4 1.46-2.79 2.93-4.89 3.36a4.89 4.89 0 0 1 -2.53-2.06c-9.8-13.74-19.44-27.6-29.26-41.32a3.26 3.26 0 0 1 -.91-2.54c0-.87.66-1.28 1.19-1.78a12.69 12.69 0 0 0 -14.14-20.71c-.88.39-1.69 1.12-2.78.73-1.65-1.37-3.38-2.69-3-5.23a3.52 3.52 0 0 1 1.73-2.08c4.08-2.91 8.18-5.77 12.26-8.67a3.06 3.06 0 0 1 2.6-.7z" fill="#fdde85"/><path d="m414.37 133.7a32.81 32.81 0 0 0 3.42 5.07c4.11 5.9 8.29 11.75 12.44 17.62l15.14 21.41a3.89 3.89 0 0 0 1.18 1.16c-.61 2.51-2.66 3.29-4.79 4-1.64-.3-2.83.61-4 1.49-4.68 3.43-4.07 2.93-8.45.38a18.21 18.21 0 0 1 -4.74-3.84 2.36 2.36 0 0 0 -.34-.43h-.14s.1-.1.11-.09a.65.65 0 0 1 0 .14 2.25 2.25 0 0 1 .37.43c2.3 2.32 4.4 4.82 6.75 7.09.61.59 1.31 1.19 1 2.22-1.1 1.65-2.91 2.44-4.43 3.59-1.93 1.45-3.9 2.86-5.92 4.19a3.25 3.25 0 0 1 -2.57.82 12.08 12.08 0 0 1 -2.94-2c-8.46-6.95-14.11-15.58-16.38-26.35a23.58 23.58 0 0 1 .34-12.17 2.41 2.41 0 0 0 -.72-2.49 141.64 141.64 0 0 1 -17.53-28.74 54.94 54.94 0 0 1 -3.47-8.82 1.27 1.27 0 0 1 .66-1.4c4.78-3.51 9.55-7 14.51-10.27a3 3 0 0 1 .88-.29c.36 0 .74-.16 1 .19a3.38 3.38 0 0 0 .84 2.33l1.79 2.52c.57 1.09-.35 1.57-.91 2.17a12.46 12.46 0 0 0 -3.42 12 12.67 12.67 0 0 0 17.8 8.37c.81-.41 1.58-1.23 2.52-.3z" fill="#fdba84"/><path d="m234.66 310.83c-1.39-1.72-3.46-2.33-5.36-3.17a89 89 0 0 0 -15.36-4.86c-1-.25-2-.55-3-.83-.11-1 .49-1.44 1.24-1.87 4.37-2.48 8.85-4.76 13.19-7.31 2.35-1.38 4.68-2.82 7.06-4.16 1.49-.84 1.59-1.5.75-3.06a67.83 67.83 0 0 0 -6.91-10.36c-.57-.71-1.55-1.4-.9-2.59 14.71-5.2 29.56-9.89 45-12.57a55.7 55.7 0 0 1 15.2-1 13.06 13.06 0 0 1 4.49 1.14 4.32 4.32 0 0 1 2.53 5.52 15.36 15.36 0 0 1 -2.78 5.23 51.13 51.13 0 0 1 -6.32 6.83 183.19 183.19 0 0 1 -22.78 17.4c-5.78 3.83-11.71 7.53-17.71 11.1-.58.35-1.14.75-1.7 1.13-1.21 2.27-4.79 4.11-6.64 3.43z" fill="#fdca82"/><path d="m225.33 272.63a76.7 76.7 0 0 1 8.46 12.2c.35.66.66 1.33 1 2s.3 1.34-.52 1.81c-2.15 1.23-4.27 2.52-6.41 3.78-5 3-10.15 5.73-15.29 8.46a6.86 6.86 0 0 0 -1.67 1.12h-.49a3.61 3.61 0 0 0 -.78-2.24 82.85 82.85 0 0 0 -60.82-39.76c-2.58-.33-5.19-.43-7.79-.63a43.25 43.25 0 0 1 8.6-4.37 67.12 67.12 0 0 1 74.12 16.06c.51.54 1.06 1.05 1.59 1.57z" fill="#fd5e78"/><path d="m73.12 191.87c-3.5-11.67 2.34-24.24 12-29.39 3.85-1.39 7.46-.09 10.87 1.36 11.83 5 19 13.89 20.81 26.71a29.32 29.32 0 0 1 -.42 10.74 10.78 10.78 0 0 1 -1.83 3.72c-9 7.8-23.51 7.84-32.67.1-.39-.73.07-1.27.4-1.84 1.85-1.47 2.2-5.76.65-8.18-1.77-2.78-5.7-4.07-8.42-2.75a1.28 1.28 0 0 1 -1.39-.47z" fill="#01dfd4"/><path d="m669.11 116.34c.17-.85.26-1.72.51-2.55a52.19 52.19 0 0 0 2.13-17.85 53.22 53.22 0 0 0 -4.59-19.09 53.8 53.8 0 0 0 -40-31.06 69.59 69.59 0 0 0 -7.4-.82 21.29 21.29 0 0 1 5.6-2.89 43.49 43.49 0 0 1 59.35 33.48c2.41 15.23-2.3 28.33-13.47 39a9.54 9.54 0 0 1 -2.13 1.78z" fill="#fed588"/><path d="m212.67 80.74c-6.56 5.73-16.81 6.92-25 2.66-7.83-4.09-12.16-10.71-12.57-19.52s3.37-15.71 10.71-20.62a8.76 8.76 0 0 1 1-.5c6.78-1.18 12.23 1.9 17.22 5.79a28.09 28.09 0 0 1 9.89 14.8 29.23 29.23 0 0 1 .59 13.65 13.24 13.24 0 0 1 -1.51 3.47 2.09 2.09 0 0 1 -.33.27z" fill="#f0087c"/><path d="m725.89 174.51c-7.22 6.27-18.77 5.94-26.06-.74a20.08 20.08 0 0 1 3.17-31.94 3.47 3.47 0 0 1 .51-.21 9.46 9.46 0 0 1 5.91.08 25.87 25.87 0 0 1 18.58 22 33.83 33.83 0 0 1 -.15 6.85 6.91 6.91 0 0 1 -1.96 3.96z" fill="#01dfd4"/><path d="m582.67 226c-5.94 5-12.64 6.52-20 3.88-7.54-2.71-12.08-8.26-13.13-16.17-1-7.72 1.77-14.13 8-18.89a4.67 4.67 0 0 1 1.79-1 6.73 6.73 0 0 1 4.23-.49c10.65 2.07 19.16 11.44 20.29 21.84a20.78 20.78 0 0 1 -1.18 10.83z" fill="#0095c2"/><path d="m312.63 173.75c-6 5-12.66 6.52-20 3.87-7.55-2.73-12.13-8.29-13.1-16.22-1.06-8.7 2.44-15.5 10-20.1 4.57-1 8.55.74 12.19 3 6.27 4 10.57 9.54 11.92 17 .75 4.29.82 8.45-1.01 12.45z" fill="#0095c2"/><path d="m67.57 72.66a2.06 2.06 0 0 1 0-2 57.43 57.43 0 0 0 1.8-11 25.72 25.72 0 0 0 -.37-5.56 41.48 41.48 0 0 0 -7.18-19.56 42.92 42.92 0 0 0 -30.32-18.7 12.37 12.37 0 0 1 -3.83-.67 32.93 32.93 0 0 1 14.82-4.5 33.8 33.8 0 0 1 17.51 3.33c11.17 5.59 17.93 14.54 19.78 26.92 1.46 9.76-1.11 18.59-7 26.44a32.39 32.39 0 0 1 -5.21 5.3z" fill="#00b8f0"/><path d="m399.16 367.34c-.53-.7-.26-1.42-.07-2.14a44.37 44.37 0 0 0 1.53-13.07 43.59 43.59 0 0 0 -6-20.5 43 43 0 0 0 -23.34-19 35 35 0 0 0 -12.59-2.12 3.22 3.22 0 0 1 1.57-1.26 35.19 35.19 0 0 1 40.4 5.88 34.64 34.64 0 0 1 10.57 20.66 34.07 34.07 0 0 1 -1.49 16 34.72 34.72 0 0 1 -10.58 15.55z" fill="#00b8f0"/><path d="m234.66 310.83a21.66 21.66 0 0 0 4.47-2.27l2.14-1.13a52 52 0 0 1 .69 13.34 66.39 66.39 0 0 1 -16.33 40.29 49.56 49.56 0 0 1 -8.9 8.41c.76-2.75 1.59-5.47 2.26-8.24a81 81 0 0 0 1.93-26.57 87.6 87.6 0 0 0 -2-12.27c-.17-.72-.44-1.42-.67-2.12l10.43-5.75c1.47-.81 2.94-1.61 4.4-2.43a4 4 0 0 0 1.58-1.26z" fill="#fd5e78"/><path d="m41.51 324.43a16.64 16.64 0 0 1 -12.73 7.74 17.77 17.77 0 0 1 -19.61-14.63c-1.52-7.88 3.07-16.54 10.23-19.33 8.85.58 15.08 5.26 19.33 12.7 2.36 4.09 3.9 8.6 2.78 13.52z" fill="#ccc0f2"/><path d="m710.64 34.62c-6 5.06-15.43 5-21.85-.09a17.75 17.75 0 0 1 .62-28.16 8.4 8.4 0 0 1 1-.53c3.31-1.22 6.31.1 9.18 1.38 9 4 14.32 14.7 12.32 24.32a13 13 0 0 1 -1.27 3.08z" fill="#ccc0f2"/><path d="m504.64 82a3.48 3.48 0 0 0 -2.34.33 69.24 69.24 0 0 1 -12.58 3.19 9.94 9.94 0 0 1 -3.51 0c-1.64-.37-2-1.24-1.28-2.71a9 9 0 0 1 1.74-2.16c3.32-3.3 7.27-5.75 11.19-8.24.66-.42 1.49-.69 1.64-1.63 1.21-.08 1.11.92 1.31 1.63.76 2.72 1.09 2.91 3.78 1.91a223.13 223.13 0 0 0 24.74-11.16c1.64-.74 3.16-1.69 4.72-2.59 1.74-1 1.86-1.52.81-3.26-.45-.74-.85-1.41 0-2.12a2.81 2.81 0 0 1 .61-.41 65.47 65.47 0 0 1 14.23-3.59 7.62 7.62 0 0 1 3.14.2c1.22.38 1.54 1.12 1 2.3a7.85 7.85 0 0 1 -1.78 2.36 62.28 62.28 0 0 1 -11.06 8.19 4.56 4.56 0 0 0 -1.76 1.34c-.74 1.47-2.24 2-3.52 2.77-1.09.66-2.29 1.13-3.37 1.83a222.89 222.89 0 0 1 -24.86 11.24 9.15 9.15 0 0 1 -2.85.58z" fill="#23b5c1"/><path d="m114.51 205c.21-.91.43-1.81.63-2.72 2.35-10.26.39-19.65-6.18-27.84a30.89 30.89 0 0 0 -19.81-11.52 23.26 23.26 0 0 0 -4.06-.45 22.21 22.21 0 0 1 11.39-3.59 25.84 25.84 0 0 1 27.11 20.7c2 9.87-1 18.24-8.46 25a3.92 3.92 0 0 1 -.62.42z" fill="#2efcdf"/><path d="m427.36 198.86a5 5 0 0 0 1 2l39.7 58.9q14.28 21.18 28.59 42.34l9.08 13.44c.24.36.5.71.72 1.09s.6.77.17 1.16-.79 0-1.16-.23c-3.41-1.74-6.09-.64-7.2 3a10.48 10.48 0 0 1 -1.44 2.59 4.86 4.86 0 0 0 -.48 5.28c.58 1 0 2.08.11 3.1a3 3 0 0 1 -2.62-1.62c-.22-.35-.32-.78-.69-1-1.08-1-1.86-2.33-3-3.35.41-.42.26-.9.2-1.4a5.64 5.64 0 0 1 5.7-6.52c1.33 0 1.36 0 1.5-1.41a5.27 5.27 0 0 1 1.42-3.37c1-1 .86-1.19.07-2.37l-4.58-6.8-68.35-101.33c-.38-.57-.79-1.11-1.19-1.67.16-1.69.71-2.11 2.45-1.83z" fill="#23b5c1"/><path d="m529.76 63.69a3.83 3.83 0 0 1 -1.34 1 211.42 211.42 0 0 1 -25.49 11.31c-1.56.56-1.93.41-2.42-1.22-.4-1.3-.66-2.63-1-4a19.77 19.77 0 0 1 8-18.39 5.29 5.29 0 0 1 1.75-1c3.24-1.45 6.17-.06 9.11 1 4.32 1.61 7.57 4.67 10.5 8.08.76.84 1.91 1.8.89 3.22z" fill="#01dfd4"/><path d="m558.39 283.61c-.27.75-.82.81-1.51.67a9.91 9.91 0 0 0 -5.51.31 1.38 1.38 0 0 1 -1.78-.57c-.32-.46-.65-.91-1-1.37l-26.87-39.87-30.82-45.71-18.46-27.33a7.86 7.86 0 0 0 -1.37-1.76c.21-1.69 1-2.21 2.52-1.74l13.61 20.25 59.62 88.32a8.93 8.93 0 0 1 .72 1.09c.88 1.85 2 2.53 4.21 1.78 2.55-.87 5.47 1.11 6.23 3.74a22.11 22.11 0 0 1 .41 2.19z" fill="#23b5c1"/><path d="m395.78 106.61-.72.21a3 3 0 0 1 -1.89-1.36c-5.85-8.13-11.56-16.35-17.38-24.5a6 6 0 0 1 -.89-2.39c.31-.88 1-.51 1.58-.47a39.57 39.57 0 0 1 9.64 2 76.42 76.42 0 0 1 22 12 21.7 21.7 0 0 1 3.71 3.09l-14.4 10.2c-.58.38-1.11.81-1.65 1.22z" fill="#fd227c"/><path d="m374.9 78.57c1.67 1.43 2.71 3.37 4 5.12 4.92 6.84 9.76 13.73 14.63 20.61a12.94 12.94 0 0 1 1.57 2.52c-5.45 3.85-10.78 7.86-16.35 11.55a56.91 56.91 0 0 1 -3.08-9.54 74.4 74.4 0 0 1 -2.47-15.83 46.33 46.33 0 0 1 1-12.2 5.6 5.6 0 0 1 .7-2.23z" fill="#d9107a"/><path d="m213 80.47c0-1.82.7-3.51.91-5.29a28.67 28.67 0 0 0 -23.42-31.87c-1.21-.23-2.49 0-3.66-.54a18.92 18.92 0 0 1 8.36-2.9 23 23 0 0 1 25.81 19.13c1.34 8.31-1.25 15.44-7.52 21.15a2.65 2.65 0 0 1 -.48.32z" fill="#fd5e78"/><path d="m497.54 333a3.35 3.35 0 0 1 1.7.7 8.48 8.48 0 0 0 7.38 1.53c1.48-.35 1.49-.31 2 1.08a6.84 6.84 0 0 0 .44 1.22 2.13 2.13 0 0 1 -.2 2.57 3.71 3.71 0 0 0 -.08 4.52 3.88 3.88 0 0 0 4.38 1.72 3.38 3.38 0 0 1 3.14.53c-2 2.56-4.1 5-6.3 7.38a12.54 12.54 0 0 1 -3.3-.53 1.65 1.65 0 0 0 -2.24.66l-.05.1a2.93 2.93 0 0 1 -5.16-.47 2.71 2.71 0 0 1 .49-3.12 1.42 1.42 0 0 0 .09-2l-.09-.09a12.36 12.36 0 0 1 -1.23-2.29c-.32-.76-.71-.87-1.43-.51a5.58 5.58 0 1 1 -.93-10.27l.38.13c.41.15.79.37 1.18.55s.68.36 1 0a.92.92 0 0 0 0-1 7.59 7.59 0 0 1 -1.17-2.41z" fill="#23b5c1"/><path d="m504.64 82c.25-.66.85-.85 1.44-1.06a215.65 215.65 0 0 0 23.92-10.54 7 7 0 0 1 2.24-.87 1.62 1.62 0 0 1 1.38 1.52c.85 4.39 1.11 8.73-1.36 12.77a1.39 1.39 0 0 1 -.38.3 19.84 19.84 0 0 1 -27.24-2.12z" fill="#01dfd4"/><path d="m725.89 174.51a41.19 41.19 0 0 0 1.17-5.81 24.73 24.73 0 0 0 -13.44-24.31 31.32 31.32 0 0 0 -10.15-2.77 15.06 15.06 0 0 1 6.92-2.51 20 20 0 0 1 22.78 16.6 19.55 19.55 0 0 1 -6.37 18.18 7.06 7.06 0 0 1 -.91.62z" fill="#2efade"/><path d="m312.63 173.75a1.46 1.46 0 0 1 -.2-1.25 27.65 27.65 0 0 0 .73-5.34 22.39 22.39 0 0 0 -.87-7.54c-1.91-6.84-6.23-11.8-12.29-15.25a23 23 0 0 0 -8.86-2.72 3.69 3.69 0 0 1 -1.62-.36 20 20 0 0 1 23.1 32.45z" fill="#00b8f0"/><path d="m582.67 226a1.53 1.53 0 0 1 -.24-1.42 21.1 21.1 0 0 0 .76-5.14 21.47 21.47 0 0 0 -.8-7.35 24.45 24.45 0 0 0 -12.45-15.52 21.42 21.42 0 0 0 -10.54-2.71 4.79 4.79 0 0 1 1.86-1.2 20 20 0 0 1 27.9 15 19.18 19.18 0 0 1 -6.49 18.34z" fill="#00b8f0"/><path d="m710.64 34.62c-.43-.67-.11-1.33 0-2a21.36 21.36 0 0 0 -17.55-26.39l-2.76-.41a16.57 16.57 0 0 1 16.29-1.48 17.69 17.69 0 0 1 5.38 29.27 4.38 4.38 0 0 1 -1.36 1.01z" fill="#ddd2fc"/><path d="m41.51 324.43a3.35 3.35 0 0 1 -.46-2c-.57-8.81-4.42-15.67-12-20.36a25.55 25.55 0 0 0 -7.93-3c-.66-.15-1.39-.12-1.71-.89 7.13-3.67 17.1-1.41 22.21 6.14 4.14 6.17 4.11 14.47-.11 20.11z" fill="#ddd2fc"/><path d="m529.76 63.69a6.89 6.89 0 0 0 -1.35-2.42c-4.93-6.1-11.16-9.71-19.14-9.94a16.48 16.48 0 0 1 8.89-2.86 19.73 19.73 0 0 1 15.37 5.77 2.7 2.7 0 0 0 1.33 1c.06 1.15 1 1.81 1.52 2.71.92 1.58.92 1.84-.71 2.75-1.92 1.05-3.67 2.46-5.91 2.99z" fill="#2efade"/><path d="m574.52 295.65c-2-3.72-5.41-4.37-8.61-1.59a2.57 2.57 0 0 1 -2 .81c-.38 0-.77-.07-.9-.51a1 1 0 0 1 .34-1.17 2.41 2.41 0 0 1 .67-.32 5.81 5.81 0 0 0 4.09-5.45 2 2 0 0 0 1-.46c.61-.43.78-.84.29-1.53a2.76 2.76 0 0 1 -.44-2.65 3 3 0 0 1 5.67 0 7.21 7.21 0 0 0 .23 1.08c.32.59.56.16.77-.14.49-.24.83 0 1.13.36a3.55 3.55 0 0 0 4.35 1 1.23 1.23 0 0 1 1.39.06c1 1.18 2.51 1.8 3.41 3.09z" fill="#23b5c1"/><path d="m82.82 203.83-1 1.27a9.63 9.63 0 0 1 -4.9 1.49 7.8 7.8 0 0 1 -5.51-13.29 17.74 17.74 0 0 1 1.7-1.44l1.38-.41c4.37.77 6.38 4.09 8.13 7.63.76 1.53 1.28 3.13.2 4.75z" fill="#cbbff0"/><path d="m242.58 46.48c-2 2.65-4.8 3.18-7.79 2.45a7.24 7.24 0 0 1 -5.68-6.18 7.48 7.48 0 0 1 3.38-7.87 4.42 4.42 0 0 1 2.53-1c4 1.87 6.34 5.12 7.89 9.1a4.36 4.36 0 0 1 -.33 3.5z" fill="#cbbff0"/><path d="m238.89 219.64a6 6 0 0 1 -6.18-5.81q0-.22 0-.45a6.17 6.17 0 0 1 6.14-6.2h.15a6.3 6.3 0 0 1 6.19 6.31 6.1 6.1 0 0 1 -6 6.15z" fill="#cbbff0"/><path d="m532.27 83.82c.18-2.1.73-4.14.91-6.25a20 20 0 0 0 -.93-8 27.72 27.72 0 0 1 7-4 19.86 19.86 0 0 1 -6.13 17.58 8.79 8.79 0 0 1 -.85.67z" fill="#2efade"/><path d="m473.59 166.24a8.18 8.18 0 0 0 -2.52 1.74 17 17 0 0 0 -3.06 2.13c-.21 1.5-1.56 2-2.49 2.9-1.09.7-2.17 1.66-3.46.46a4.3 4.3 0 0 1 -.65-4.51l10.18-7.11c.81-.56 1.64-1.09 2.46-1.64a10.16 10.16 0 0 1 .7 2.68 2.72 2.72 0 0 1 -1.16 3.35z" fill="#d6147a"/><path d="m427.36 198.86a9.76 9.76 0 0 0 -2.44 1.84 2.27 2.27 0 0 1 -2.7 0 17.09 17.09 0 0 1 -2.75-1.77l12.53-8.93c1.49-.32 3.91 1.09 4.15 2.43a1.7 1.7 0 0 1 -.73 1.77 13.47 13.47 0 0 1 -1.8 1.28c-1 .69-1.81 1.68-3.21 1.32a15.93 15.93 0 0 0 -3.05 2.06z" fill="#d6147a"/><path d="m93.39 249.36a4.23 4.23 0 1 1 4.3-4.18 4.23 4.23 0 0 1 -4.3 4.18z" fill="#cbbff0"/><path d="m293.63 86.86a4.16 4.16 0 0 1 -8.33 0 4.16 4.16 0 0 1 8.33 0z" fill="#cbbff0"/><path d="m38.14 278.2a4 4 0 0 1 -3.88 4.12h-.37a4.16 4.16 0 1 1 4.25-4.11z" fill="#cbbff0"/><path d="m108.63 45.11a4.17 4.17 0 1 1 -4.14-4.19 4.17 4.17 0 0 1 4.14 4.19z" fill="#cbbff0"/><path d="m476.39 41a4.17 4.17 0 1 1 0-.41q.01.21 0 .41z" fill="#cbbff0"/><path d="m733.38 26.42a4.17 4.17 0 1 1 -4.17-4.17 4.17 4.17 0 0 1 4.17 4.17z" fill="#cbbff0"/><path d="m536.87 158.84a4.13 4.13 0 1 1 .16 0z" fill="#cbbff0"/><path d="m722.22 191.19a4.07 4.07 0 0 1 4.07 4.07q0 .13 0 .26a4.15 4.15 0 1 1 -8.3-.35 4.09 4.09 0 0 1 4.2-4z" fill="#ebe4da"/><path d="m396.56 33a4 4 0 0 1 -3.81 4.19h-.24a4.15 4.15 0 1 1 4-4.25z" fill="#cbbff0"/><path d="m582.52 285.22a4.13 4.13 0 0 1 -4.87.84 4.57 4.57 0 0 1 -2-2.28 4.22 4.22 0 0 1 .72-4 4.09 4.09 0 0 1 6.93 4.22 9.6 9.6 0 0 1 -.78 1.22z" fill="#2efade"/><path d="m242.58 46.48a14.49 14.49 0 0 0 -6.29-10.91c-.6-.45-1.26-.83-1.27-1.71a7.66 7.66 0 0 1 8.54 3.59 7.44 7.44 0 0 1 -.98 9.03z" fill="#ddd2fc"/><path d="m493.12 314.62a3.22 3.22 0 0 1 -2.94-3 3.07 3.07 0 0 1 3-3 3 3 0 0 1 0 6z" fill="#23b5c1"/><g fill="#a697ce"><path d="m595.22 136a2.89 2.89 0 1 1 -2.89-2.89h.1a2.92 2.92 0 0 1 2.79 2.89z"/><path d="m736.22 98.08a2.89 2.89 0 1 1 -2.8 3.07 2.93 2.93 0 0 1 2.78-3.07z"/><path d="m137.59 101.07a2.89 2.89 0 1 1 -2.81 3.06 2.93 2.93 0 0 1 2.79-3.06z"/><path d="m323.88 225a2.89 2.89 0 1 1 2.95 2.83h-.1a2.87 2.87 0 0 1 -2.85-2.83z"/><path d="m175 171.8a2.84 2.84 0 1 1 -5.68.17 2.84 2.84 0 1 1 5.68-.17z"/><path d="m598.2 253a2.89 2.89 0 1 1 -2.95-2.83h.1a2.84 2.84 0 0 1 2.85 2.83z"/><path d="m227.08 138.74a2.89 2.89 0 1 1 -3-2.75h.1a2.85 2.85 0 0 1 2.9 2.75z"/><path d="m29.69 98.09a2.89 2.89 0 1 1 -2.85 2.91s0-.06 0-.09a2.85 2.85 0 0 1 2.85-2.82z"/><path d="m625.4 185a2.89 2.89 0 1 1 -2.9 2.88s0-.06 0-.09a2.86 2.86 0 0 1 2.9-2.79z"/><path d="m577 68.56a2.84 2.84 0 1 1 2.92-2.76 2.86 2.86 0 0 1 -2.92 2.76z"/><path d="m376.41 19.25a2.84 2.84 0 1 1 -2.92 2.75 2.84 2.84 0 0 1 2.92-2.75z"/><path d="m338.36 164.79a2.84 2.84 0 1 1 2.85-2.83 2.85 2.85 0 0 1 -2.85 2.83z"/><path d="m307.79 393.82a2.84 2.84 0 1 1 -2.74-2.94 2.84 2.84 0 0 1 2.74 2.94z"/><path d="m622.29 22.17a2.89 2.89 0 1 1 2.9-2.88s0 .07 0 .11a2.85 2.85 0 0 1 -2.9 2.77z"/><path d="m402.9 261.57a2.84 2.84 0 1 1 -2.84-2.84 2.84 2.84 0 0 1 2.84 2.84z"/><path d="m454.2 384.11a2.84 2.84 0 1 1 2.78-2.9 2.76 2.76 0 0 1 -2.67 2.85z"/><path d="m305.17 320.2a2.84 2.84 0 1 1 -2.8-2.88 2.84 2.84 0 0 1 2.8 2.88z"/><path d="m54 179a2.84 2.84 0 1 1 2.81-2.87s0 0 0 0a2.76 2.76 0 0 1 -2.7 2.82z"/></g><path d="m556 274.35a2.4 2.4 0 0 1 2.35-2.45h.11a2.46 2.46 0 0 1 2.46 2.46 2.55 2.55 0 0 1 -2.49 2.49 2.45 2.45 0 0 1 -2.43-2.47z" fill="#2efade"/><path d="m490.17 325.5c2.47.16 2.91.66 3 3.35a3 3 0 0 1 -1 1.09 2.56 2.56 0 0 1 -3.23-.33 2.5 2.5 0 0 1 -.12-3.24 2.24 2.24 0 0 1 1.35-.87z" fill="#2efade"/><path d="m669.17 253.1v.08h-.29a.21.21 0 0 1 .29-.08z" fill="#fea183"/><path d="m531.91 84.1.38-.3a.41.41 0 0 1 -.38.3z" fill="#2efade"/><path d="m212.67 80.74.35-.3z" fill="#fd5e78"/><path d="m670.19 347.17c-7.66.34-13.57-6.48-13.4-13.46a13.38 13.38 0 0 1 13.36-13.4h.21a13.62 13.62 0 0 1 13.38 13.69c-.06 7.3-6.35 13.56-13.55 13.17z" fill="#ffd588"/><path d="m718 356.59c-.35-5.63 4.57-10.6 10.48-10.48a10.38 10.38 0 0 1 10.44 10.32q0 .16 0 .32a10.54 10.54 0 0 1 -10.51 10.4 10.21 10.21 0 0 1 -10.41-10q0-.28 0-.56z" fill="#ffd588"/><path d="m678.86 273.6a8.75 8.75 0 0 1 -8.63 8.87h-.23c-5.63-.15-8.94-4-8.85-9.07a8.87 8.87 0 0 1 17.74.2z" fill="#ffd588"/><path d="m704.2 293.8c-.17 4.59-3.45 8.9-9 8.83a8.68 8.68 0 0 1 -8.86-8.49q0-.21 0-.42a8.89 8.89 0 0 1 8.93-8.85 9 9 0 0 1 8.93 8.93z" fill="#ffd588"/><path d="m652.39 287.22a5.91 5.91 0 0 1 -5.63 6.17h-.22a6 6 0 0 1 -6.35-5.63q0-.24 0-.48a6.24 6.24 0 0 1 6.21-6.14 6 6 0 0 1 6 6z" fill="#fed588"/><path d="m723.71 316.93a4.85 4.85 0 0 1 -4.92-4.78q0-.11 0-.22a5 5 0 0 1 10 0 4.85 4.85 0 0 1 -4.69 5z" fill="#fed588"/><path d="m714.67 329.86a4.84 4.84 0 0 1 -4.74 4.94h-.26a5 5 0 0 1 .15-10 4.89 4.89 0 0 1 4.85 4.93s0 .09 0 .13z" fill="#fed588"/><path d="m719.32 387.8a4.63 4.63 0 0 1 -4.66-4.6q0-.08 0-.15a4.79 4.79 0 0 1 4.68-4.9h.11a5.23 5.23 0 0 1 4.86 5 4.8 4.8 0 0 1 -4.94 4.65z" fill="#fed588"/><path d="m665.78 310.59a4.76 4.76 0 0 1 -4.81-4.71s0-.07 0-.11a4.86 4.86 0 0 1 4.86-4.82 5.23 5.23 0 0 1 4.77 4.81 4.78 4.78 0 0 1 -4.73 4.83z" fill="#fed588"/><path d="m705 368.63c.15 2.6-2.35 4.51-4.71 4.53a5 5 0 0 1 -4.53-4.62 4.69 4.69 0 0 1 4.62-4.64 4.45 4.45 0 0 1 4.62 4.73z" fill="#fed588"/><path d="m722.48 337a4.16 4.16 0 0 1 3.93-4.38h.33a4.45 4.45 0 1 1 -4.26 4.64q0-.13 0-.26z" fill="#fed588"/><path d="m649 262.83a3.89 3.89 0 1 1 -4 3.77 4 4 0 0 1 4-3.77z" fill="#fed588"/><path d="m691.9 274.55a3.62 3.62 0 0 1 3.44-3.79h.27a3.85 3.85 0 0 1 -.1 7.69 3.65 3.65 0 0 1 -3.62-3.68q0-.11.01-.22z" fill="#fed588"/><path d="m673.62 291.75a3.58 3.58 0 0 1 3.38-3.75h.35a4 4 0 0 1 3.75 3.88 3.93 3.93 0 0 1 -3.83 3.79 3.58 3.58 0 0 1 -3.63-3.53q-.03-.22-.02-.39z" fill="#fed588"/><path d="m692.54 353.12a3.5 3.5 0 0 1 -3.62-3.8 3.54 3.54 0 0 1 3.45-3.63h.2a3.92 3.92 0 0 1 3.79 3.81 3.55 3.55 0 0 1 -3.47 3.63z" fill="#fed588"/><path d="m713.16 298.89a3.5 3.5 0 0 1 3.47-3.53h.26a3.62 3.62 0 0 1 3.4 3.82q0 .13 0 .26a3.57 3.57 0 0 1 -7.14-.22q-.01-.16.01-.33z" fill="#fed588"/><path d="m712.47 288.1a2.5 2.5 0 1 1 2.46-2.55 2.65 2.65 0 0 1 -2.46 2.55z" fill="#fed588"/><path d="m703.07 311.31a2.6 2.6 0 0 1 -2.48 2.48 2.49 2.49 0 0 1 -2.33-2.61 2.28 2.28 0 0 1 2.2-2.36h.1a2.68 2.68 0 0 1 2.51 2.49z" fill="#fed588"/><path d="m689.15 307.12a1.67 1.67 0 0 1 -1.74 1.59h-.16a1.66 1.66 0 0 1 -1.63-1.69q0-.08 0-.16a1.87 1.87 0 0 1 1.88-1.67 2 2 0 0 1 1.65 1.93z" fill="#fed588"/><path d="m723.27 260.78a6 6 0 0 1 -5.82 6.17h-.45a6.12 6.12 0 0 1 -6.09-6.15v-.05a6.17 6.17 0 0 1 12.33 0z" fill="#ffa283"/><path d="m707.21 252.28a4.84 4.84 0 0 1 -4.68 5h-.24a5 5 0 1 1 .06-10 4.9 4.9 0 0 1 4.86 4.94z" fill="#ffa283"/><path d="m726.4 276.23a5 5 0 0 1 -5 4.88 4.8 4.8 0 0 1 -4.85-4.75q0-.13 0-.25a4.9 4.9 0 0 1 4.8-5h.07a5 5 0 0 1 5 5s-.02.09-.02.12z" fill="#ffa283"/><path d="m729.2 252.92c-.24-2 2.06-3.7 3.45-3.68a3.87 3.87 0 0 1 4 3.74q0 .13 0 .26a4 4 0 0 1 -3.83 3.58 3.63 3.63 0 0 1 -3.63-3.63q0-.14.01-.27z" fill="#ffa283"/><path d="m742.59 296.74a2.16 2.16 0 1 1 2.2-2.12 2.19 2.19 0 0 1 -2.2 2.12z" fill="#ffa283"/><path d="m724.75 264.26a2.07 2.07 0 0 1 2-2 2.17 2.17 0 0 1 2.1 2.16 2 2 0 1 1 -4.07-.11z" fill="#ffa283"/><path d="m461.4 169 1.06 3.55c.24.83.69.93 1.38.48.51-.34 1-.65 1.57-1a2.86 2.86 0 0 1 2 1.26c1.06 1.38 2 2.85 3 4.29 8.78 13.17 17.68 26.26 26.53 39.38l30 44.45c2.15 3.19 4.35 6.34 6.47 9.56.47.72 1 1.43.63 2.39l-.34.64q-1.71 3.14 1.63 4.65a6.16 6.16 0 0 0 1.22 0l.68-.15a2 2 0 0 1 1.79.73 52.2 52.2 0 0 1 3 4.5 1.35 1.35 0 0 1 -.29 2c-.76.53-1.29 0-1.76-.53a5.08 5.08 0 0 0 -5-2 4.51 4.51 0 0 0 -3.71 4.88 2.77 2.77 0 0 1 -2.13 3c-1.48.53-2.15-.58-2.8-1.57-4.91-7.4-9.93-14.73-14.9-22.09q-15.43-22.62-30.71-45.32l-25.72-38.1a11.22 11.22 0 0 1 -1.68-2.88c-.1-1.09-.9-1.83-1.42-2.69a3.77 3.77 0 0 1 -.87-2.5c-.74-1.45-.74-1.46.61-2.42 1.57-1.11 3.11-2.26 4.71-3.32a1.66 1.66 0 0 0 .81-2q-1-5-2.5-9.91a1.62 1.62 0 0 1 -.07-1.3 44.86 44.86 0 0 1 6.64 11.89.7.7 0 0 1 .17.13z" fill="#1e3d52"/><path d="m430.45 196.75a8.47 8.47 0 0 1 2.59-1.83 2.49 2.49 0 0 1 1.85 1.09c.42.61.9 1.19 1.31 1.81 9.17 13.8 18.52 27.49 27.77 41.23q15.33 22.79 30.73 45.53c2.43 3.6 4.87 7.19 7.29 10.81a4.2 4.2 0 0 0 3.3 2.07 5.92 5.92 0 0 1 4.95 3.18 2.18 2.18 0 0 0 2.76 1.36l.3-.13a7.93 7.93 0 0 1 2.56-.42c1.06-.07 2-.37 2.22-1.58a1.5 1.5 0 0 1 .91-.6c1-.3 1.72-.82 1.74-1.93a2.33 2.33 0 0 0 -1.54-2.14 2.65 2.65 0 0 1 -1-.54c-2.2-2-3.62-4.56-5.23-7-9.29-13.89-18.7-27.7-28-41.56q-14.67-21.8-29.41-43.56-4.7-6.95-9.36-13.92a3.53 3.53 0 0 1 -1-2.35c.6-1.76 1.32-2.25 3-2a5.82 5.82 0 0 0 1 2l34.5 51.14 18.31 27.2q11.53 17.06 23.09 34.11a5.23 5.23 0 0 1 .92 3.45 8.4 8.4 0 0 0 2.79 7c1 .85.94.88.17 1.87a2.59 2.59 0 0 0 -.34.44 3.46 3.46 0 0 1 -3.88 2.11 4.4 4.4 0 0 0 -4.17 2.35c-.46.74-.94.92-1.67.45-2-1.29-4-.9-6 .27a3 3 0 0 1 -.82.41c-.44.1-.69-.23-.84-.58s0-.59.36-.72.6-.18.88-.31a2.76 2.76 0 0 0 1.76-2.79 2.71 2.71 0 0 0 -1.87-2.53 2.76 2.76 0 0 0 -3.17.94c-.24.28-.43.6-.68.94-.74-.14-.92-.82-1.24-1.29q-6.48-9.57-12.93-19.16l-31.8-47.12-29.27-43.55c-.94-1.39-1.9-2.76-2.84-4.15z" fill="#23b5c1"/><path d="m453.74 180.44 14.86 22.11q29.13 43.17 58.27 86.32a3.81 3.81 0 0 0 .42.61c.43.42.49 1.42 1.46 1a2 2 0 0 0 1.47-2.19 5.74 5.74 0 0 1 3.68-5.88 5.85 5.85 0 0 1 6.5 2c.29.37.38 1 1 1 0-1.17-2.38-4.92-4.28-6.91a4.47 4.47 0 0 0 1.93-2.13c.67-.07.78.44 1 .77q3.16 4.61 6.28 9.25a3.09 3.09 0 0 1 -.18 3.91 1.38 1.38 0 0 1 -1 .48 5.3 5.3 0 0 0 -3.85 2c-.46.6-1 .54-1.68.38a4.71 4.71 0 0 0 -5.89 2.63 1.47 1.47 0 0 1 -1.3.9 3.82 3.82 0 0 0 -1.79.47 1.26 1.26 0 0 1 -2-.51c-.25-.43-.56-.82-.84-1.23l-27.8-41.25q-15.47-22.94-31-45.86l-16.4-24.31c-.42-.62-.88-1.2-1.32-1.8.25-1.68.8-2.06 2.46-1.76z" fill="#23b5c1"/><path d="m533.93 273.34-11.73-17.27-55.72-82.53c-.35-.51-.71-1-1.07-1.53a11.07 11.07 0 0 1 2.6-1.9 12.82 12.82 0 0 0 1.41 2.4q17.56 26 35.11 52l31.81 47.09a1.28 1.28 0 0 1 .32 1c-.82.4-1.87.25-2.73.74z" fill="#23b5c1"/><path d="m453.74 180.44a8.35 8.35 0 0 0 -2.45 1.72 16.92 16.92 0 0 0 -3.06 2.11 12.2 12.2 0 0 0 -2.64 1.94 1 1 0 0 1 -1.21.73h-.13c-1.3-.23-2.82-3-2.45-4.37l4.76-3.57 4.42-3.08a25.61 25.61 0 0 1 2.63 3.52 1.11 1.11 0 0 1 .13 1z" fill="#d6147a"/><path d="m536.44 278.69a1 1 0 0 1 -1.22 0 2.38 2.38 0 0 1 1.22 0z" fill="#23b5c1"/><path d="m414.37 133.7c-.45.21-.91.39-1.34.63a13.51 13.51 0 0 1 -16-21.59l1.34-1.28a14.9 14.9 0 0 1 8.63-2.36 13.56 13.56 0 0 1 8.68 23.35z" fill="#dbd4fa"/><path d="m441.79 182.53c.74 1.07 1.49 2.13 2.2 3.22a1.14 1.14 0 0 0 1.53.5h.06l27.22 40.29 44.41 65.78c.42.62.81 1.25 1.22 1.87.39.45.1.78-.19 1.11-1.72 2-1.72 2-.1 4.1a1.46 1.46 0 0 1 .31.84c0 2-.26 2.23-2 2.17a5.51 5.51 0 0 0 -3.08.56 3.71 3.71 0 0 1 -2.17.26 1.29 1.29 0 0 1 -1.35-1 5.36 5.36 0 0 0 -5.86-3.88c-1.1.07-1.55-.55-2-1.28l-10.86-16-58.13-86.07a13.59 13.59 0 0 1 2-1.6c.51-.43.49-.82 0-1.2l-3-2.2a57.89 57.89 0 0 1 -6.65-7 11.76 11.76 0 0 1 -1.58-2.29.37.37 0 0 1 .39-.34c2.6 1.69 5.23 3.33 7.78 5.08a2.17 2.17 0 0 0 3-.14c1.8-1.41 3.72-2.66 5.54-3.94.72.21.9.8 1.31 1.16z" fill="#1e3d52"/><path d="m423.54 179.53-.12-.03.07.07z" fill="#1e3d52"/><path d="m423.78 180a.51.51 0 0 1 .46.3l-.43.34-.31-.4q-.1-.4.28-.24z" fill="#1e3d52"/><path d="m423.49 179.57.29.43-.29.24a.52.52 0 0 1 0-.7z" fill="#1e3d52"/><path d="m82.82 203.83a14.05 14.05 0 0 0 -5.82-10.49 18.49 18.49 0 0 1 -2.51-1.88 7.71 7.71 0 0 1 9 3c2 2.84 1.56 7.54-.67 9.37z" fill="#dbd4fa"/><path d="m518.45 300.2a2.82 2.82 0 0 1 -2.53-2.77 2.85 2.85 0 0 1 2-3 4.59 4.59 0 0 0 .49-.26 3.26 3.26 0 0 1 2.48 1 2.81 2.81 0 0 1 .78 3 2.73 2.73 0 0 1 -2.5 1.91z" fill="#2efade"/><path d="m416.4 122.64a10.17 10.17 0 1 1 -10-10.32 10.14 10.14 0 0 1 10 10.28z" fill="#01dfd4"/></svg>
