<svg width="105" height="125" xmlns="http://www.w3.org/2000/svg">

 <g>
  <title>background</title>
  <rect fill="none" id="canvas_background" height="127" width="107" y="-1" x="-1"/>
 </g>
 <g>
  <title>Layer 1</title>
  <path id="svg_1" fill="#fdde85" d="m39.81,18.18a55.31,55.31 0 0 1 6.87,6a139.83,139.83 0 0 1 21.26,26.1a2.92,2.92 0 0 0 2.64,1.61a22.93,22.93 0 0 1 11.42,3.75a45.19,45.19 0 0 1 20,26.65a5.52,5.52 0 0 1 0.11,0.92a2.57,2.57 0 0 1 -1.07,1.66c-3.29,2.47 -6.69,4.8 -10.06,7.16a2,2 0 0 1 -1.22,0.36a3.09,3.09 0 0 1 -0.57,-0.06a1.35,1.35 0 0 1 -0.71,-0.45c-1.56,-3.09 -3.15,-6.16 -4.3,-8.39a36.34,36.34 0 0 1 2,8.25a2,2 0 0 1 -1.09,2c-1,0.65 -1.87,1.44 -2.87,2.06a5.22,5.22 0 0 0 -2.68,3.38c-1.4,1.46 -2.79,2.93 -4.89,3.36a4.89,4.89 0 0 1 -2.53,-2.06c-9.8,-13.74 -19.44,-27.6 -29.26,-41.32a3.26,3.26 0 0 1 -0.91,-2.54c0,-0.87 0.66,-1.28 1.19,-1.78a12.69,12.69 0 0 0 -14.14,-20.71c-0.88,0.39 -1.69,1.12 -2.78,0.73c-1.65,-1.37 -3.38,-2.69 -3,-5.23a3.52,3.52 0 0 1 1.73,-2.08c4.08,-2.91 8.18,-5.77 12.26,-8.67a3.06,3.06 0 0 1 2.6,-0.7z"/>
  <path id="svg_2" fill="#fdba84" d="m42.37,56.7a32.81,32.81 0 0 0 3.42,5.07c4.11,5.9 8.29,11.75 12.44,17.62l15.14,21.41a3.89,3.89 0 0 0 1.18,1.16c-0.61,2.51 -2.66,3.29 -4.79,4c-1.64,-0.3 -2.83,0.61 -4,1.49c-4.68,3.43 -4.07,2.93 -8.45,0.38a18.21,18.21 0 0 1 -4.74,-3.84a2.36,2.36 0 0 0 -0.34,-0.43l-0.14,0s0.1,-0.1 0.11,-0.09a0.65,0.65 0 0 1 0,0.14a2.25,2.25 0 0 1 0.37,0.43c2.3,2.32 4.4,4.82 6.75,7.09c0.61,0.59 1.31,1.19 1,2.22c-1.1,1.65 -2.91,2.44 -4.43,3.59c-1.93,1.45 -3.9,2.86 -5.92,4.19a3.25,3.25 0 0 1 -2.57,0.82a12.08,12.08 0 0 1 -2.94,-2c-8.46,-6.95 -14.11,-15.58 -16.38,-26.35a23.58,23.58 0 0 1 0.34,-12.17a2.41,2.41 0 0 0 -0.72,-2.49a141.64,141.64 0 0 1 -17.53,-28.74a54.94,54.94 0 0 1 -3.47,-8.82a1.27,1.27 0 0 1 0.66,-1.4c4.78,-3.51 9.55,-7 14.51,-10.27a3,3 0 0 1 0.88,-0.29c0.36,0 0.74,-0.16 1,0.19a3.38,3.38 0 0 0 0.84,2.33l1.79,2.52c0.57,1.09 -0.35,1.57 -0.91,2.17a12.46,12.46 0 0 0 -3.42,12a12.67,12.67 0 0 0 17.8,8.37c0.81,-0.41 1.58,-1.23 2.52,-0.3z"/>
  <path id="svg_3" fill="#fd227c" d="m23.78,29.61l-0.72,0.21a3,3 0 0 1 -1.89,-1.36c-5.85,-8.13 -11.56,-16.35 -17.38,-24.5a6,6 0 0 1 -0.89,-2.39c0.31,-0.88 1,-0.51 1.58,-0.47a39.57,39.57 0 0 1 9.64,2a76.42,76.42 0 0 1 22,12a21.7,21.7 0 0 1 3.71,3.09l-14.4,10.2c-0.58,0.38 -1.11,0.81 -1.65,1.22z"/>
  <path id="svg_4" fill="#d9107a" d="m2.9,1.57c1.67,1.43 2.71,3.37 4,5.12c4.92,6.84 9.76,13.73 14.63,20.61a12.94,12.94 0 0 1 1.57,2.52c-5.45,3.85 -10.78,7.86 -16.35,11.55a56.91,56.91 0 0 1 -3.08,-9.54a74.4,74.4 0 0 1 -2.47,-15.83a46.33,46.33 0 0 1 1,-12.2a5.6,5.6 0 0 1 0.7,-2.23z"/>
  <path id="svg_5" fill="#d6147a" d="m101.59,89.24a8.18,8.18 0 0 0 -2.52,1.74a17,17 0 0 0 -3.06,2.13c-0.21,1.5 -1.56,2 -2.49,2.9c-1.09,0.7 -2.17,1.66 -3.46,0.46a4.3,4.3 0 0 1 -0.65,-4.51l10.18,-7.11c0.81,-0.56 1.64,-1.09 2.46,-1.64a10.16,10.16 0 0 1 0.7,2.68a2.72,2.72 0 0 1 -1.16,3.35z"/>
  <path id="svg_6" fill="#d6147a" d="m55.36,121.86a9.76,9.76 0 0 0 -2.44,1.84a2.27,2.27 0 0 1 -2.7,0a17.09,17.09 0 0 1 -2.75,-1.77l12.53,-8.93c1.49,-0.32 3.91,1.09 4.15,2.43a1.7,1.7 0 0 1 -0.73,1.77a13.47,13.47 0 0 1 -1.8,1.28c-1,0.69 -1.81,1.68 -3.21,1.32a15.93,15.93 0 0 0 -3.05,2.06z"/>
  <path id="svg_7" fill="#d6147a" d="m81.74,103.44a8.35,8.35 0 0 0 -2.45,1.72a16.92,16.92 0 0 0 -3.06,2.11a12.2,12.2 0 0 0 -2.64,1.94a1,1 0 0 1 -1.21,0.73l-0.13,0c-1.3,-0.23 -2.82,-3 -2.45,-4.37l4.76,-3.57l4.42,-3.08a25.61,25.61 0 0 1 2.63,3.52a1.11,1.11 0 0 1 0.13,1z"/>
  <path id="svg_8" fill="#dbd4fa" d="m42.37,56.7c-0.45,0.21 -0.91,0.39 -1.34,0.63a13.51,13.51 0 0 1 -16,-21.59l1.34,-1.28a14.9,14.9 0 0 1 8.63,-2.36a13.56,13.56 0 0 1 8.68,23.35l-1.31,1.25z"/>
  <path id="svg_9" fill="#01dfd4" d="m44.4,45.64a10.17,10.17 0 1 1 -10,-10.32a10.14,10.14 0 0 1 10,10.28l0,0.04z"/>
 </g>
</svg>